<svg xmlns="http://www.w3.org/2000/svg" class="land"  id="Lithuania" width="1094.8" height="821.1">
	<defs>
		<style type="text/css">
			.land
			{
				fill: #CCCCCC;
				fill-opacity: 1;
				stroke:white;
				stroke-opacity: 1;
				stroke-width:0.5;
			}
			.city
			{
				fill: #FF0000;
				fill-opacity: 1;
				stroke:white;
				stroke-opacity: 1;
				stroke-width:0.5;
			}			
		</style>
	</defs>
<g>
  <path class="land"  id="sakiai" d="M370.4 471.4h-.6l-.5.2-.2-1.8-.3-.6-1-1.5-.8.3-1.2.6v3.3l-1.7.7-1.5-3-1.3-2.5-1-2-1-2-2-2.4-1-1L352 446s5.7 4 8.4 5.3c2.7 1.2 6.4 1 7.8.2s4.2-1.5 5.4-1.5c1.2 0 5.4-.7 7-2.5s4.3-2 6.7-2c2.5 0 4.5-1.2 6.2-2.5 1.7-1.2 3.7-2.5 6.6-.7 3 1.7 9.4 2.2 13.3.2 4-2 10.3-3.7 12.5-3.7 2.2 0 10.8 1.5 12.3 2.5s5 1.5 7.7 1.5 8.8 1.7 10.3 2.5c1.5.7 7.8 0 9.3 1.2s7.4 2.3 9.8 2c2.6-.2 5-.2 6.3-1 1.2-.7 3-.2 4.4-.2.6 0 1.5.2 2.4.5 1.4.5 2.8 1.2 3 2 .6 1.2 4 3.5 6.2 4s5 1.2 6.4.7 3.6-.5 4.6 0l4.7 2.3s1 1.5 1 3c-.4 1.5-.6 3 0 4 .4 1 0 3-2.6 2.7-2.7-.2-4.6 0-4.6 0s-2.7 4.5-3.2 5.8-2.5 1.7-3.7 1.7c-1.3 0-2.8.3-2.8.3l-3.2-1.8c-1-.5-3.2.3-3.2.3l-2.4 5-3.5 1-1.3 2.5-1.2 4.2-9.3 12.5-3.2-.2-4.2 1.2.3 1.8 2 .7-2.4 3.3-1.3 2.5v2.5l2.2.2-.4 2.8 2.5 1.2-.7 4.3h-2.2l-3.5 10 4.3 1.2-2.2 4.8-2.4.5-3.6 3.2-3.2.5-2.7 1-2 1.5-6.3.3-.4-3-5.4-1-.4-2H434l-1.3 1.2-6.6-5c-1-.7-4.6-.2-4.6-.2l.3-4.3-1.5-3.2s-5 .7-7 .7-4.5 2.8-4.5 2.8-5.2-1.5-6.4-1.5c-1.2 0-2.2 2.5-2.2 2.5l-1.6 3.2h-2.7v-2.2l-1.7-1 .8-1.3v-1.8l.8-.8.7-.6 1.4-.3H400.6l-.2-1.2v-.7l-1-1-.6-1.4.7-.6.7-.6.4-.6.4-.6.4-.5-1.4-1.6v-1l.3-1.2V510.6l-2.4-1.4-.2-1v-1l.3-2 .2-.3-2-3-1-.3h-.3l-.6-.2.6-2.4.2-.6.6-.6.2-.2v-.3l.2-1.4-.5-1.5-.3-1.2v-.8l-1.6-.6-.5-.4-2.8-2-.8-.5-2.2 1.2-1.8-.6v-.3l-.5-1-.6-2-.8-1.3-.3-.4-.5.4-2.6 1.6-.5-.7v-1.5l-.2-.3.3-.3 1.5-1.6v-.5l-.2-.4-.2-.5-3.3-.7-.4-.6-.4-.8-.3-.3-.4-.8-.2-.5-.2-.4-.2-1.2-.2-1.4-3.4-3h-1.6z"/>
  <path class="land"  id="ignalina" d="M980.2 371.6l1 .7v.2l.4.3 1 .3 3 .3h1.3l1.7-.2 2 1.5 2 1 1-.4 1.8-.2.6 1 .8.5.4.5.5-.4 1-.7 1.5-1.2 1.4-1 1.4 1.7.5-.5 1.6-1.4.7-.5h.5l1.7-.3.7-1.7 2.6 2.2 3.7 1.7 1.2.4 1 .3 1.8 1 3.2-1.2 4.8.7h1.5l1 1.2.7.7 1-.4 1-.4 1.7 2.2.4.8 1.3.2 1.2.2.8.2v.2l.5 1 .3.7v.3l.4.6.8.5.4.2.5.3 1 2 .4.8h-3.1l-3.2 1.2-.5.3-1.6.6-3.5 1.5-.2-.5-6-.5-5.5.3-5 1s-3.5-.5-4.5-.5-2.7 1.2-2.5 2.2.8 2 .3 3.3-2.5 2.2-2.5 2.2l-4.8 1.3-3.5 2.5s-1-1.3-2.7-1.8-2.8 2.3-2.8 2.3l-2.5.5s-3.7.5-4.7 0-2.5.2-3.3 1.2-3.2.5-4.2-.2-1.8-1-3-.8-2.8-.2-3.5-1.2-3.3-.3-3.3-.3-2.2.8-3.7 1-4.3 0-5.5-.7-4-1.5-4-1.5l-3 1.2-3.5-1.2-.5-1.5-2.8-2-2 1.5-2.5-.5-1.7 2-1 2-4.5-.8 1-4.2 3.2-2.5-5-2.5.3-2.8-2-4.2-2.8-1.3s-2.2-.5-3.2-.2-3-.3-4-.8-2-.2-2.8-2.2-1.7 0-2 1.2-1.2 1-2.7 1.8-1.5 4.2-1.5 4.2h-4.3l-2.7 1-3.5-2.2s-3-.5-4.3-.5-2 1.2-3 2-3 0-3 0l-.2-3.5-5.5-3 .2-2.8 1.5-1.5-1.5-2 .3-3.2 1.7-.8 1.3-3.7.2-2.5 4 1.5 1.5 1.5s2.3 1 3.3 1.2 6-2.5 6-2.5l-1.3-4.5-4-2.2-.2-2.5.5-2.8-4.5-2.2-.8-1.8 3.8-2.7s3 1 3.7 2.2 1.5 1.3 2.8 1.3 3.2-2.8 3.2-2.8l4.5 2.3 2.3 4 4 .2v-3.2l-3.3-.5-.5-8-3.2-.3.7-6 3-.2v-2l-8.2-.5v-4.5l-2.3-.5-.5-4-2.5-.8v-2.5l3-.5.3-1.7 4.7.2.8 3 7.7-2 7 .3v-3.3l6.3-1.5 4.7 1.3 4-1 3.5-1.3.3-2.7.2-2 2.8.5s-2.8-1.8-3-3 1-2.3 1-2.3l2.2-.5-.2-3.5s-.3-2.7 1-3 2.2-1.2 2.2-1.2l2-2 5 2 14.5.7 1.8 2.3 2 1.5v1.7l2.5.8v-2.8l3.2.8v-3.5l2.3-.3s.7-1.7 1.7-2.2 2-1.3 2-1.3l2.3 1.5h4.5s-1-1.5.2-1.5h2.8l2.7-3 1.8.3-.8 3s4.4-1 4.4-.3v7.5l.4 2.7-1.4 2.5-.3.5-2.8 2.8v.5l-1 3-.6.6-2.5 3-5.4 1.3h-.3l-3.5 1.7v2l2.4 1h.2l2.8 6.2v1.2l.4 3.7v1.8l.4 3.7.4 13.6.3 3.4-2 1.4-3.8 2.4-.8.7-2.8 2.7-1.5 1.3-.7.8-.6 1-.3.7v1l.4.8.4.3z"/>
  <path class="land"  id="zarasai" d="M852.5 266.8l2.5-1 2.3-4.5 2-1.5.2-4.5.5-3 3.3-3.5 3.5 1.7 3-.2s1.5 2 2.5 2 2.5-1.5 2.5-1.5-.3-2.8.7-3.5 1-3.3 1-3.3l-1-3.2s2.3-.5 2.3-1.8v-4.2l4.2 1.2.3 2s2.5.3 3.7 0 1.5-.7 1.5-2.5-.5-4.7-.5-4.7v-4s2.8 0 3.8-.8 2.2-1 4.2-1 3.5 0 3-1.7.5-3.5.5-3.5 3-1.5 1.5-3-2.5-4.3-2.5-4.3l3.8-3.5 2-3.5 4.2-1.5h.2l2 2.6.4.7 8.8 12.2 4 3.3 6 4.7 6 3.4 4 5.4 1 4.2.4 1.5 1.3 5.2 1 3.4.5.6 2 3.6 1.7 2.7 2 1.7.4.3 2.2 1.6.5.2 6 1 3.3 5.4 1.4 3 .3 2h.7l2.8.8 3.7-.5 6.3 1.3.3.3 2.5 2 7.6 4.2 2 1.4 3.5-.4h8.7l.7-1 1.6 3.7.4.7-.2 2-.5 4-.3 4.8c0-.7-4.4.3-4.4.3l.8-3-1.8-.3-2.7 3h-2.8l-.2 1.5h-4.5l-2.3-1.5s-1 .8-2 1.3-1.7 2.2-1.7 2.2l-2.3.3V298s-2-.5-3-1-3-2.7-3-2.7L969 299l-14.5-.7-5-2-2 2s-1 1-2.2 1.2-1 2-1 3l.2 3.5-2.2.5s-1.3 1-1 2.3 3 3 3 3l-2.8-.5-.2 2-.3 2.7-3.5 1.3s-3 1.2-4 1l-4.7-1.3-6.3 1.5v3.3l-7-.3-7.7 2-.8-3-4.7-.2-1.5-3.5s-.3-2.5-1.3-3.8-3.2-1.5-3.2-1.5L893 306l2.8-2.7-5.5-4.5-2.8 3-10.5-9.5-4.7-.3v3l-1.8 1-2.5-3.2-1-2.8v-7l-2-4.5-.7-3s-2.8-1-3.8-1.2-2.5-1-2.5-1l-2-2.8s-1.2-.7-3.2-1.2-.3-2.5-.3-2.5z"/>
  <path class="land"  id="visaginas" d="M978.5 299.8v3.5l-3.2-.8v2.8l-2.5-.8v-1.7l-2-1.5-1.8-2.3 3.5-4.7s2 2.2 3 2.7 3 1 3 1v1.8z"/>
  <path class="land"  id="salcininkai" d="M833.6 650.8l3 1.7h6.4l4.4-1.5h3l2 .2 2 2 .8 2.3.4 1.2 1 3 1.5 3h.5l2.6.8 2.8 1.4.6 2.3 1.2 2.2 3 1 2.2.8.3 1.6-.5 1-3.3 1-1.2 1.5 1 2 2 4.5-.4 2-.4 2.7.6 3-.3 2-2 .3-3-1.2h-.2l-3 .6-4.3 2.5-3 2.4-3 1.8-2.3 1.3-1.5.2-2-1.7-1.2-.8-3-.6h-2.4l-5.2-1.6-3-.3H828l-2-4v-.3l-.3-.5-.7-2 .6-1.3.5-1 4.3-1.6 2-1.3 1.3-1 .5-3V677l-.6-1.2 1-1.4 1-1.4-.3-2.4-4.8-7.6-1.7-2-2.7-2.8-1-3v-2.6l-1.2-.8-1.7.5-1.2 2.6-.8 1.5-2.3.2-2.5-.2-2 .2-3 1.3-2.5 1.8-2 1.6-.7.3-3.8 1.7h-.3l-2.7.5-4 .6h-2.8l-2.6-.6h-1.7l-1.7.2h-.2l-2.8 1.6-3 .8-1 1.7-2.8 4.8-4.5 7-3.6 5.4-1.3 2-6.3 6.2-6.8 6.7-3.7 1.7-4.4-.6h-.8l-1-1-.7-.5-1.5-1.3-1.3-1-1.2-1-2.4-2.3h-2.7l-1.2.7-1 1-2.7 1.8-5.8 3.5-6 .6s0-5-.5-6.7l-1.5-5s-3.5-2.8-5.5-2.8-4.5-1.5-4.5-3.7.3-3.8 2-4.8 1.5-1.7 4-2 4-2.2 4-3.2.5-2.8 2.3-2.8 4.2-.5 4.2-.5l.5-4.7 4.3-.3-1.3-3s-.7-2.2 1.5-2.2 6.8-.8 6.8-.8-.5-3.5-1-4.5-1-2.2-.3-3.5 1.8-2.5.5-3.2-2-4.3-2-4.3-.2-2.2 1-2.5 1.3-3.2 1.3-3.2.2-2 6.2-2 4.3-2.8 4.3-2.8-.5-2.2 1-2.2 2.7-1 2.7-1l-1-4.8 2.5-1.5-.2-4.7v-.2l2.5-.5 5.5-2.5-.5-2.2v-2l2.7-1 3.3-3.3 5.2-.7.3 3.2 1.2 1.8 2.3-2.5 3.7-1.5s.5-3.5 2-4.5 1.5-2.8 3-1.3 2.5 3 2 4.5-2 3.3-.5 4.5 4.3 2.3 6.3 2 5.2-.2 6.5-.2 2.7-2.8 2.7-2.8-.5-2.2-.5-3.2 1.5-3.8 5-3.8 5.5-.2 5.5-.2l4 .2 2.5 1.5 2.8.3.7-2.8 3.8 2.5s3.7 3.3 5 3.3h2.7l2.5 3.2 3.5-2.2 4.3 3.2v-4.2l3.2-1 .8-2.8 3.7.8h.3l-1.3 2.7-3 4v.7l-.4 2.6v1.9l1.5 1.5 1 1.2v4.1l-1 2-3.6.7-.5 2.5-.3 3.4-2.2 5-2.4 2.3-1.2 1-1.7 3.7v3.8l.7 1.8 2.2 1.2z"/>
  <path class="land"  id="svencionys" d="M867.5 507.5l-1.5 2-1-6.7s-1.7.2-3.5 1.5-3.7-1-3.7-1 0-3.3-1-4-.8-4.8-.8-4.8l-3.7-.2-4.5-.5-.5-5.5s1 0 1.7-1.3-.7-2.2-.7-2.2l3.2-3.8 3.3-3v-2.2h-2.5v-2l-2.3-2-4-.3v-3.2l-6-.8-1.5-4.7-3.2-.3-1.5-1.7-2.5-1.5-.3-2.5-3.7-1.3s1-4.2 2.5-4.2 4.2 1 4.2 1l2.8.5 1-3.5 4 .2 3.5-.7 4 .5 1.2 4.7 6.8-.5.7 2.5 7.8-.2.2-2-2.7-1.3.7-2.2.8-4.5-2.8-1.5 1.8-1.5 3-.5.5-3.3-2.3-1.5 3.3-1.2 2.2-1.3v-2.7l-3.7-.8-2.8-2.2-4.2-3-2.5-1.3.2-5.7-3.2-.8-1.3-2.2-4.5-1-.5-5.3 3-1.2s.3-1.8.3-3-1.3-3.5.2-4.8 5.8-1.5 5.8-1.5l-3-3.5-1.3-3.7 3.3 1.2 1.2-2.7.8-4 2.5-2 2.2-3.3h3l1.3-4.2s3.2.5 3.5 1.5l.5 2.2 3.2.5v6l6-.2-.5-4.5 3.3-1 5.5 3 .2 3.5s2 .7 3 0 1.8-2 3-2 4.3.5 4.3.5l3.5 2.2 2.7-1h4.3s0-3.5 1.5-4.2 2.5-.5 2.7-1.8 1.3-3.2 2-1.2 1.8 1.7 2.8 2.2 3 1 4 .8 2.2-.3 3.2.2l2.8 1.3 2 4.2-.3 2.8 5 2.5-3.2 2.5-1 4.2 4.5.8 1-2 1.7-2 2.5.5 2-1.5 2.8 2 .5 1.5 3.5 1.2 3-1.2s2.7.7 4 1.5 4 1 5.5.7l3.7-1s2.5-.7 3.3.3 2.2 1.5 3.5 1.2 2 0 3 .8 3.5 1.2 4.2.2 2.3-1.7 3.3-1.2 4.7 0 4.7 0l2.5-.5s1-2.8 2.8-2.3 2.7 1.8 2.7 1.8l3.5-2.5 4.8-1.3s2-1 2.5-2.2 0-2.3-.3-3.3 1.5-2.2 2.5-2.2 4.5.5 4.5.5l5-1 5.5-.3 6 .5.2.4-4.8 2-4 2-2 5.6-.8 6.4-2.3 2.2-3.8.2h-.5l-1.7 1.7.2 2.6 2 2.8.6.8.3 3-2.6 2.8-3 .3-1.8 1-2 1-3.3 1-2-1.7H997l-2.6.3H991l-.3-.2-4.5-3.4-4.3 1.7-2.7 3.6-2.3 4.2-3.4-2.3-1.7-2-6.4-2-4-1-.7.3-6.8 2.7-4 3.8-6.3 5v2.5l2 2.5-.3 2.6-.2.6-.3.5-.4.6-1.2 1.5-1 1.2-.6 3.6-.8 4.2-2.5 6.2-.4 1v.4l-1 2-8.2 4.7-2.7 1.2-.4.2-3.4 2-4.5 2-.8 2.3-2.5 3-2 2.3-3 .6-2.3-.7-3.6-2.6-1.7-2.2-1-.7-2-.3-2.2 2.5-4 1.7-5.6 1.6-6.8 4-1.8 3v1.4l-.5 4.2-8 9-2.5 3.5z"/>
  <path class="land"  id="vilnius" d="M740 536.8c1.5-.5 2-1.3.8-2.3s-1.3-1.2-1.8-2.2-3.5-1.8-3.5-1.8-2-1-2-2.7-.2-3.5 1.5-3.8 6-1 3.8-3-5.3-3.5-5.3-3.5H730l-.2 4.8s0 2.7-1.3 2.7-3.7 1.3-3.5-1-1-6.5-1-6.5-1.5-4.7.3-4.7 2.5.7 2.5-1-1.8-3.3-2.8-2.5-4.2 2.5-4.2.7 1-3.2 1-3.2l-2.3-1.3s2.3-4.5 4-3.5 2.8 1 2.8 1l2.7-2.5 2.8 1h2.7s-.2 2.8 2.8 3.3 4.7-.3 3.2-2-1.5-3.3 0-3 3.3-1 3.3-1 1.7-2 2.5-.3 1.7 1.5 3.2 1.5 2.5-.2 2.5-.2 1-2.3 2.5-2 5.5 1.2 6.8 1.7 3.2-.2 3.2-.2 1-2-.5-2.5-2.5-.8-1-1.8 2.5-1.2 3.3 0 .7 1.5 2 1 1.2-.5.7-2.2-4-6.3-2.5-7.8 2.5-3.5 2.5-5.7 1-3.3 1-3.3h2.5s0 1 2.3 1 3.7-1 2.5-2.7-1.5-2.8-1-4.3.5-3.5.5-3.5l-1-5.5-1.5-3.2 3.7-2.3 2.3-1.7 5.7-1.3h6.5l2 2.8s2.3 1 3.5.5 3-.3 3-.3l4 1.5 2.3-2.2 2.2-.3 2.5.8 8.3.2 4-2 4 1 3.7 1.3.3 2.5 2.5 1.5 1.5 1.7 3.2.3 1.5 4.7 6 .8v3.2l4 .3s2.3.5 2.3 2v2h2.5v2.2l-3.3 3-3.2 3.8s1.5 1 .7 2.2-1.7 1.3-1.7 1.3l.5 5.5s3 .5 4.5.5l3.7.2s-.2 4 .8 4.8 1 4 1 4 2 2.2 3.7 1 3.5-1.5 3.5-1.5l1 6.7-2.4 3.8-.6 1-1 1.5-1.2 4-.4 7.2 2 3.4.7 4v7.3l-1 2.7-2 3.4-.3 6 .5 6.8 1 3 .3 1.2.2.4v1l1 7.2.6 1.7.4.8.2.6-.2.4-.3.6-.3 1-.8.3h-1.2l-.7.5-1.5 1-1 .8-1 .7-.5.7-1 1.5-.7 1.6-.4 1.8-.7 1.8-2 3-.3.7-2.7 6.4-2.8 5.5-.5-.2-3.7-.8-.8 2.8-3.2 1v4.2l-4.3-3.2-3.5 2.2-2.5-3.2h-2.7l-5-3.3-3.8-2.5-.7 2.8-2.8-.3-2.5-1.5-4-.2s-2 .2-5.5.2-5 2.8-5 3.8.5 3.2.5 3.2-1.5 2.8-2.7 2.8-4.5 0-6.5.2-4.8-.7-6.3-2 0-3 .5-4.5-.5-3-2-4.5-1.5.3-3 1.3-2 4.5-2 4.5l-3.7 1.5-2.3 2.5-1.2-1.8-.3-3.2 1.5-5-1-3.8 3.8-.5.2-4.5-3-.5-1.7-2.2-2 1.2-2.3-1-.2-2.7-2.8-2-1.5 3.5h-5.7l-2.5-1 4-6.8 2.7-5.7 3.3-2 2.2 1.5-.5 2.7-2 1 2.3 2.5 2 2.5s1.2-.2 1.5-1.5 1-.7 2-.7 2.7 2.2 2.7 2.2l4.3-.2s1-5.5-2.3-7 1.3-2.5 1.3-2.5 2.5.5 3.5 1.5 1.5 2.7 1.5 2.7h2s1.5 1.5 1.7 3.3 1 1.5 2.5 1-.7-2-2.2-3.8.2-1.2 1.5-1.5 4 .5 4 .5 2-.7 3.7-.7 6.3-4 6.3-4-.5-1-1.8-2.3 1-2.2 1-2.2-.5-1.5-1.2-2.8-.5-1.7-.5-3 1.5-1.5 2.7-.7l3.5 2s1.3-.3 1.8-1.3l2.5-4.5s1-1.5 2.5-1.5 1.5-.5 1.5-2.2 1.7-2 3.2-.3 3.8-.5 4-1.7 1.3-1 3.8-1 1-2.8-1.3-2.8-.2-2.7-.2-2.7l-3.8-.5s-1.5-.8-3.7-.8-1.5-1.7-1.5-1.7l.5-2.8 2.2-1s0-2.5 1-3 2.5-.2 2.5-.2l.5-5s-.5-5.5-.5-7 1.3-3.5 1.3-3.5h-6.5l-1-1.5-5.5-.3v-2.5l-3.3-.5.3 2.8s-1 0-4.5-1 .2-3 .2-3l-3.5-2.3-3.7 2.3.5 5s-.3 2.7-1.5 3.2-1.3 1.3-1.3 2.5 2 2 2 3-2.7 1-4.7.8-1.8 1.7-2.5 3-3.8.7-5.3-.3-1.5 0-4.2 1.3.7 5.5.7 5.5l.8-2.3h2l-.3 5-1.5 2.8s-2.7-1.5-3.7-2.5-1.5-1-2.8-.5-1.2 4-1.2 4-.8 1.5-1.8 1.7-4-.5-4-.5l-1.2 1.8 3 .5s3.5 1.2 4.5.5 5.7-.3 5.7-.3l.5 3s.5 1.8.5 3-4.2 1.8-4.2 1.8l-.8-2.5-3.7-.3-2.3 2.5s-4-1.5-5-2.7c-.8-1-3-2.4-3.6-2.7l.4-1.5s1.2-1.5.5-3-2.8-3.2-4-3.2-2.3 0-3.5.2-4.5-1-2.5-2 1.5-3 .2-2.7l-3.2.7h-4s.2-2.2 1.7-2.7z"/>
  <path class="land"  id="rokiskis" d="M755.5 188.5l3.3-2.2.2-2.5 2-.8v-3l-1.7-1.7-3.3-4s2-1.8 3.5-1.5 2.3-.3 2.3-1.3v-3l-1.8-4 3 .5 2.3-2.5s3.2 1.5 4.5 1.5 2.5-1.7 3.7-1.7 3.8-1.3 3.8-1.3l.2-3-1.5-1.7-2.2.2-.8-3.2-4.2-4.3-.3-2.2 1.5-2.8 1.6-.2 2.2-1 3.5-1.8h2l.2.5 2 1.8 1 1.5 2.7.4 3.2 3.7 1.7 1.8 2.3.8 1.6-1.2 2-1.3h4l4.7-1 1.5.3 2.6 3 1.3-1.6 2.8-1 2 .4 2.2 2 2 .3 2.3-.3h.5l1.4-1 .5-1.7v-1.5l1-.6 1.5-.3h2.5l1.3 1.3 1.2 4.7.7 1 4.7.6 4.3.2 3 .4 2.2-1 2-1.6 1.5-.8 1 .3.2 2.5v2l-.3 1.6v2l-.3 2.4v1.6l.3 1.4 1 2 1.5 1.8 3.4 2 3 2 4 1.6 3.4 1 2.6 1 3 1 .2.2 2 3.3.5.7h1.6l2.2 1 1.3 2v1.3l.7 1.6 1.2 1 2 2 2.4 1 1.4.7 5.8 2h.2l3.5 2.6 1.4 1 6 2.8 2.7 4h-.2l-4.2 1.5-2 3.5-3.8 3.5s1 2.8 2.5 4.3-1.5 3-1.5 3-1 1.7-.5 3.5-1 1.7-3 1.7-3.2.3-4.2 1-3.8.8-3.8.8v4s.5 3 .5 4.7-.2 2.3-1.5 2.5-3.7 0-3.7 0l-.3-2-4.2-1.2v4.2l-2.3 1.8 1 3.2s0 2.5-1 3.3-.7 3.5-.7 3.5-1.5 1.5-2.5 1.5-2.5-2-2.5-2l-3 .2-3.5-1.7-3.3 3.5s-.5 2-.5 3l-.2 4.5-2 1.5-2.3 4.5-2.5 1s0-3.8-.2-5.3-2.5-1-2.5-1-1 .8-1.3 1.8-1 1-3.2 1-2.5-1.8-2.5-1.8l-3.3-1-2.5 5.3h-2.7l-1.5-1.8-2.3-.2-1.7 3-2-.6-4-1 .5-3.4-4.3-1-2.7 2.2-2.8-1.2-3.5-3.3s-1.7-.7-4-2-4.7 0-4.7 0l-1-5s-2.3-4-3.5-5.2l-3-2.8-1.5-1.2-2.3-3v-5.5s-.2-2.3.8-3.5 3.5-3.8 3.7-5.5 1.5-8.3.8-10-1.8-1.5-1.5-4 1.2-5.3-.3-5.5-2.2-.8-.7-2 1.5-2 1.2-3.8-.5-3.2-2-2.5-2.7 1-2.7 1l.2 2.8h-2.7s-1.8 1.5-1 2.5 0 4.5 0 4.5l-3.3.5s0-1.5-2-2.5-3.7-.5-3.7-.5l-1.8.5-2.5-1.5-4 1.2-3.7 1.3-1.5-2.8-1.3 1-4.5-4.7-5-1.3s.3-1 0-2.7-1.2-3.5 0-4.3 1.8-2.2 1.8-3.7l1.2.2z"/>
  <path class="land"  id="utena" d="M828.8 266.8l1.7-3 2.3.2 1.5 1.8h2.7l2.5-5.3 3.3 1s.2 1.8 2.5 1.8 3 0 3.2-1 1.3-1.8 1.3-1.8 2.2-.5 2.5 1 .2 5.3.2 5.3-1.7 2 .3 2.5 2.5.2 3.2 1.2l2 2.8s1.5.7 2.5 1l3.8 1.2.7 3s2 3 2 4.5v7l1 2.8 2.5 3.2 1.8-1v-3l4.7.3 10.5 9.5 2.8-3 5.5 4.5-2.8 2.7 3.3 5.5s2.2.3 3.2 1.5 1.3 3.8 1.3 3.8l1.5 3.5-.3 1.7-3 .5v2.5l2.5.8.5 4 2.3.5v4.5l8.2.5v2l-3 .2-.7 6 3.2.3.5 8 3.3.5v3.2l-4-.2-2.3-4-4.5-2.3s-2 2.8-3.2 2.8-2 0-2.8-1.3-3.7-2.2-3.7-2.2l-3.8 2.7.8 1.8 4.5 2.2s-.5 1.8-.5 2.8l.2 2.5 4 2.2 1.3 4.5s-5 2.8-6 2.5l-3.3-1.2-1.5-1.5-4-1.5-.2 2.5-1.3 3.7-1.7.8-.3 3.2 1.5 2-1.5 1.5-.2 2.8-3.3 1 .5 4.5-6 .2v-6l-3.2-.5-.5-2.2-3.5-1.5-1.3 4.2h-3l-2.7-1 1.5-3.2 2-.5v-3.5l2.2-2.3.8-4-.8-1.7-2.2.5-2-2-2.8-1-2.2.2-1.3-3.2-4.2 2.5-4.5.7s-.3-3.7-2-3.5-8.5 0-8.5 0l-3.8 1.8-2.7.2.2-2.7-2.2-1-3 2-2.3-2.5-2.5-2.3-3 1-.2 3-3-1 .2-3.7-3-4-4.2-1.8-5.5-.2v-2.8s2.5-.5 2.5-1.5v-2.2s1.7-1.3 1.7-2.3v-3h-3l-1.7-3.7 5.2-3 .5-3.5h4.3v-2l-1.8-.8v-2.2l2-1.8-2.5-5.5 3.3-2.2-1.8-6.3 2.5-4 4.8-1.5-.3-1.7h1.8l1.7 1.7s2-1 1.8-2-1-2.5-1-2.5l2-2.2-1-1.8-4.5-.7-2-1.8 2.5-3.7 3.5-.5.2-3.5 1-3-1.7-1.3 1.5-2.2-1.3-2 3-3 2-3 .2-.6 2 .6z"/>
  <path class="land"  id="anyksciai" d="M698 269.8h3.8s2-1 3.2-.3 2.8 1.5 4.8.8 5.5-2.5 5.5-2.5l1.7 1.5v2l4 .2.5-3 3.3-2 4.7.5 1 2.8 2.8-.8s1.7-2.7 2.7-3.5 2.3-2.5 4-1 2.3 1.5 3.8 1.3 3.5-.3 4.5.5 4.2 2.2 4.2 2.2h5.3s-.8 3.3-.3 4.5l1.5 4.3s2.5 0 3.8-.8 6.7-3.5 8.5-3.5 7.5-2.2 7.5-2.2 4-2 5.5-2 2.5-.3 3 1 2.5 2 2.5 2l1.2.5 2-2.5-2.2-2.3-1-3.5s2.5-1 3.5-1l4-.2.5-2.5 2-1 1.5-2.8s2.5-1.2 4.7 0 3 1 4 2l3.5 3.3 2.8 1.2 2.7-2.2 4.3 1-.5 3.5 4 1-.3.5-2 3-3 3 1.3 2-1.5 2.2 1.7 1.3-1 3-.2 3.5-3.5.5-2.5 3.7 2 1.8 4.5.7 1 1.8-2 2.2 1 2.5-1.8 2-1.7-1.7H817l.3 1.7-4.8 1.5-2.5 4 1.8 6.3-3.3 2.2 2.5 5.5-2 1.8v2.2l1.8.8v2h-4.3l-.5 3.5-5.2 3 1.7 3.7h3v3l-1.7 2.3v2.2l-2.5 1.5v2.8l5.5.2-.3 3.8-3.5 1.5-.5 4.2-7-1.2-8 3-4.7-1s-1.8-1.3-2.5-2.8-2-1.2-3.8-1-2.7-1-2.7-1l-3.5 3.5.7 4.5-3.7 2.3s-5.5-2-6.8-2-4.7 5.7-4.7 5.7l2.2 2.8 3 .5s1.5 2.5 2.5 3.7-.5 2.8-1.7 3-2.8.8-3.8.8-3.5.7-3.5.7l-.6.5-1.7 1.3-1.8-2-1.7.7s-1.5-.5-2.5-1.2-1.3-.5-2.5 0-1.3 2.7-1.3 2.7-2.2-2-3.2-3.2-.8-6.5-.8-6.5l-1-4-4.2.5-3.5 2-3.5 1-1.3-1.5 1.3-2.5-3.5-.8-4 1-3-.5-2.3-2.2-5.7-2.3V358l1.2-3.7-1.5-2.8 2.3-3 3.5 1.3-1.3-6.5-4.5-2.8-.5-3.7-2.5-3.8-3 .8-1.5-2.5s-1.7-.8-2.7-2.3-2.5-2-2.5-2-2.3 1-3.8 1.3-6-.3-6-.3l3-4.2s2.5-3.8 2.8-5.3l.5-3s-2.5-2-1-3.5 1.2-2.5.5-3.7-1.3-2.5-.8-3.8 1.3-3.5 2.8-4 4.7-.7 4.7-.7l.3-5.5-2.3-6-2.5-.5s-3.2 2.2-4.2 1.2-.8-3.7-.8-3.7l5.5-2.8 2.8 2.3s2.7 2.2 3.2.7 4.3-3.5 4.3-3.5l-2.5-2.7-4.3-1 2.3-4.3-2-2.7.6-1.6z"/>
  <path class="land"  id="sirvintos" d="M782 448.5l-1.5 2-3 .8 1.8 3.5-2.3 1.7-3.7 2.3 1.5 3.2 1 5.5s0 2-.5 3.5-.3 2.5 1 4.3-.3 2.7-2.5 2.7-2.3-1-2.3-1H769s-1 1-1 3.3-1 4.2-2.5 5.7 2 6 2.5 7.8.5 1.7-.7 2.2-1.3.3-2-1-1.8-1-3.3 0-.5 1.3 1 1.8.5 2.5.5 2.5-2 .7-3.2.2-5.3-1.5-6.8-1.7-2.5 2-2.5 2-1 .2-2.5.2-2.5.3-3.2-1.5-2.5.3-2.5.3-1.8 1.2-3.3 1-1.5 1.2 0 3-.2 2.5-3.2 2-2.8-3.3-2.8-3.3h-2.7l-2.8-1-2.7 2.5s-1 0-2.8-1-4 3.5-4 3.5l-1-5.2-2.2-1h-2.8l-.5-5.8s-4.2-2.7-5.5-3-2.2 0-3-2.5-3.7-2-5-2-6 1-6 1l-1-4.5s-3.2-2-6-2.7-1.7-.5-2.5-2.5-2.7-2.3-2.7-2.3l-6-.2-.8-2.8-2.5-2.7 1-3 3.8-1.8.7-5.2 5.3-.3v-3.2l2.5-2.3-2.3-4.5-3.2-2.5-1.5-3.2 8.7-7.3 2.3 4.8 2 .2 1.5-2.2 3 1.7 4.7-5 11.5.5 2.8-1.2 4 3.7 6.5-.2.2-2h4.8l.5-1.5 4.2-.5.8-3.8 8.2-4.5 1.8 1.3s1.2-1.3 1.2-2.3 1-3.7 2-2.2 1.8 2 1.8 2h2.2l7 5.7 1.8 1.3 4-3.5 4.2 1.7-1 6.5.5 4.3 4.5.5 2.8-1 3.2 2.2-.2 3.3 3.2 2.7z"/>
  <path class="city"  id="vilnius_city" d="M781.8 579c1.5 1.8 3.7 3.3 2.2 3.8s-2.2.7-2.5-1-.7-3.3-1.7-3.3h-2s-.5-1.7-1.5-2.7-3.5-1.5-3.5-1.5-4.5 1-1.3 2.5 2.3 7 2.3 7l-4.3.2s-1.7-2.2-2.7-2.2-1.8-.5-2 .7-1.5 1.5-1.5 1.5l-2-2.5-2.3-2.5 2-1 .5-2.7-2.2-1.5-3.3 2-1.2-4.8-3.5-.5-3-1.2 2-2 4.5-1.3.5-4.5s3.5 0 4.5-.2 4.5-1.8 1.2-2-3.5 0-4.7-1.5-2-4-2-5.3V551c.7.4 3 1.7 3.7 2.8 1 1.2 5 2.7 5 2.7s1.3-2.5 2.3-2.5l3.7.3.8 2.5s4.2-.5 4.2-1.8-.5-3-.5-3l-.5-3s-4.7-.5-5.7.3-4.5-.5-4.5-.5l-3-.5 1.2-1.8s3 .8 4 .5 1.8-1.7 1.8-1.7 0-3.5 1.2-4 1.8-.5 2.8.5 3.7 2.5 3.7 2.5 1.5-1.5 1.5-2.8l.3-5h-2l-.8 2.3s-3.5-4.3-.7-5.5 2.7-2.3 4.2-1.3 4.5 1.5 5.3.3.5-3.3 2.5-3 4.7.2 4.7-.8-2-1.7-2-3 0-2 1.3-2.5 1.5-3.2 1.5-3.2l-.5-5 3.7-2.3 3.5 2.3s-3.7 2-.2 3 4.5 1 4.5 1l-.3-2.8 3.3.5v2.5l5.5.3 1 1.5h6.5s-1.3 2-1.3 3.5.5 7 .5 7l-.5 5s-1.5-.3-2.5.2-1 3-1 3l-2.2 1-.5 2.8s-.8 1.7 1.5 1.7 3.7.8 3.7.8l3.8.5s-2 2.7.2 2.7 3.8 2.8 1.3 2.8-3.5-.3-3.8 1-2.5 3.5-4 1.7-3.2-1.5-3.2.3 0 2.2-1.5 2.2-2.5 1.5-2.5 1.5l-2.5 4.5s-.5 2-1.8 1.3l-3.5-2s-2.7-.5-2.7.7-.3 1.8.5 3 1.2 2.8 1.2 2.8-2.2 1-1 2.2 1.8 2.3 1.8 2.3-4.5 4-6.3 4-3.7.7-3.7.7-2.8-.7-4-.5-3-.2-1.5 1.5z"/>
  <path class="land"  id="birzai" d="M684.5 217.5l-1 2.3-1.5-2 1-1.8-.7-3-2 .5-1.5-2-.8-1.6.8-.2 2.2-3.8-1-1.7-1.2-1.5.2-3s2.5-1.3 2.5-2.3.3-2.5-1-3-2.5-1.5-2.5-1.5v-4.2l1.3-.8v-2.5l3.7-3.2-.2-4.3 7.7-1.2.3-5.5-1.8-4.3-3.5-.7-1.5-11-3.2 1-.3 1.7s-2.2 2.8-2.5 3.8-1.5 1.2-1.5 1.2l-7.7-5 2.7-3.7-.2-2.5-2.5-2 2.2-2.5-2.5-1.5s-1.2 1.5-2.7 1.2-2.8-4.7-2.8-4.7l-1.5-.5-1-2.8-.5-3.5-3-1.2-.7-2.3 2.7-1.7.8-2.8 3.7-2.2-2-2v-3.8l1-3 2-.8 5.5-1.6 2.7-2 1-1.2-1-3.3.2-2 2-3 3.4-2.8 3.3-4.5V94l1-2 2-2 2-.3 3-.5 3.4-1.4 1.2-.8 1-3.4 2.3-1 4.3-1h2l.3.2h3.4l2.3-1.3.7-1.7 1-.5 2.2 2h3.5l2-1 1.4-1.7v-1.8l-.8-2-.3-2.3 1-1.3 2.8-1 3 1.2.5 1.5-.8 2.6v2.6l1.6 4.5 5 7.8 3 4.7v9.6l1 3 3.7 2 .7.4 1 .7h.2l.4.4 1 .6 1 1.4 1 1.6 1.5 2.3 1.3.6h.4l1 1.3 1.3 1.7.8 1.3.2 4v1.4l.2 1.6v1.5l1 2.8 1 3.4v.5l1 .7v.3l1 3h.6l2.4.5 5.2 2 4 1h1.6l-1.5 2.8.3 2.2 4.2 4.3.8 3.2 2.2-.2 1.5 1.7-.2 3s-2.5 1.3-3.8 1.3-2.5 1.7-3.7 1.7-4.5-1.5-4.5-1.5L763 165l-3-.5 1.8 4v3s-.8 1.5-2.3 1.3-3.5 1.5-3.5 1.5l3.3 4 1.7 1.7v3l-2 .8-.2 2.5-3.3 2.2-1.2-.3-2.3-.7-1.5 2-2.5-1.5-.5-1.5 2.8-4.7-2.3-2.5-2.2-1.8s-1.8 2-2.5 3.3-5 3.5-6.3 3.7-3 1.8-6.7 1.8-2.5 3.5-2.5 3.5l-4 .2v2.8l-1.5 1.5 2.7 4.7-.2 5.8s-1 1.7-2.8 1.7-3-1-3-1l-1.2 2.3-3.5-2-2.5 3.5-5.3 1-2.7.7-1 2-6 .3-2.8-.3-.7-2.7h-2.8l-1.2 3-2.8 2.2-2 2z"/>
  <path class="land"  id="trakai" d="M756.3 557.8c1.2 1.5 1.5 1.2 4.7 1.5s-.2 1.7-1.2 2-4.5.2-4.5.2l-.5 4.5-4.5 1.3-2 2 3 1.2 3.5.5 1.2 4.8-2.7 5.7-4 6.8 2.5 1h5.7l1.5-3.5 2.8 2 .2 2.7 2.3 1 2-1.2 1.7 2.2 3 .5-.2 4.5-3.8.5 1 3.8-1.5 5-5.2.7-3.3 3.3-2.7 1v2l.5 2.2-5.5 2.5-2.5.6-2 .5s-4 1.5-5.3 2.3-1.7.5-5 .7-4.7 2.8-5.2 4-2.5 1.3-4.3 0-2.7 1-4.5 1.3-3.5 2.7-3.5 2.7-3.5.8-4.7-.2-6.3 0-6.3 0-3.2 1-4.5.5-2.7.2-3.2 1.7-2 2-3.5-.5 2.5-4.7 2.5-4.7V623l-3.3-.2s-2-.5-2.7-2.3-5.5-1.7-6-.2-4-.8-4-.8l-1.8 3.3-4.7 1-1 4-6-1.8.5-2.2-6.3-.3-1.7 1.8-3.8-1-5-.3-3-.2s-1.2-2.5.3-3.5 2-2.3 1.5-3.5-.5-3.5-.5-3.5-2-2.8-4.3-2.3-1.5-2.7-.2-3.2 2.2-1.8 2.2-3 .5-3.3.5-3.3l-1.5-1.2-1.5-5.5 2-1 .8-14 6.5.5-.5-2.8 1.2-2 2.3.5.5-2.7v-2.5l-2.3-4.5.4-1.6h.3l6.2-2 1.5-2.2 1.8 1.5 4.2.3 2 .7s2.3 1 3.8 1 3.7-1.5 3.7-1.5h4.8l5 2.3 5-3 4.5 1.5 2.7 2.5h5l4.5-7.5-1-1.8.5-2 5-6.2s1.8-.3 2-3 3.5-3.5 3.5-3.5l2.8-1s2.2.5 4 1.2 5 1.5 5 1.5l4.5-4h4l3.2-.7s1.8 1.7-.2 2.7 1.2 2.3 2.5 2 2.2-.2 3.5-.2 3.2 1.7 4 3.2-.5 3-.5 3l-.4 1.6v1.5c0 1.3.6 3.8 2 5.3z"/>
  <path class="land"  id="moletai" d="M754.5 379.5s2.5-.7 3.5-.7 2.5-.5 3.8-.8 2.7-1.7 1.7-3-2.5-3.7-2.5-3.7l-3-.5-2.2-2.8s3.5-5.7 4.7-5.7 6.8 2 6.8 2l3.7-2.3-.7-4.5 3.5-3.5s1 1.3 2.7 1 3-.5 3.8 1 2.5 2.8 2.5 2.8l4.7 1 8-3 7 1.2.5-4.2 3.5-1.5.3-3.8 4.2 1.8 3 4-.2 3.7 3 1 .2-3 3-1 2.5 2.3 2.3 2.5 3-2 2.2 1-.2 2.7s1.7.3 2.7-.2l3.8-1.8s6.7.3 8.5 0 2 3.5 2 3.5l4.5-.7 4.2-2.5 1.3 3.2 2.2-.2 2.8 1 2 2 2.2-.5.8 1.7-.8 4-2.2 2.3v3.5l-2 .5-1.5 3.2 2.7 1-2.2 3.3-2.5 2-.8 4-1.2 2.7-3.3-1.2s.3 2.5 1.3 3.7l3 3.5s-4.3.3-5.8 1.5-.2 3.5-.2 4.8-.3 3-.3 3l-3 1.2.5 5.3 4.5 1 1.3 2.2 3.2.8-.2 5.7 2.5 1.3 4.2 3 2.8 2.2 3.7.8v2.7l-2.2 1.3-3.3 1.2 2.3 1.5-.5 3.3-3 .5-1.8 1.5 2.8 1.5-.8 4.5-.7 2.2 2.7 1.3-.2 2-7.8.2-.7-2.5-6.8.5-1.2-4.7-4-.5s-2 .7-3.5.7l-4-.2-1 3.5-2.8-.5s-2.7-1-4.2-1-2.5 4.2-2.5 4.2l-4-1s-2.8 2-4 2l-8.3-.2-2.5-.8-2.2.3-2.3 2.2-4-1.5s-1.7-.2-3 .3-3.5-.5-3.5-.5l-2-2.8H785l-5.7 1.3-1.8-3.5 3-.8 1.5-2-3.2-2.7.2-3.3-3.2-2.2-2.8 1-4.5-.5-.5-4.3 1-6.5 2-1.7-1.2-3.3 4.5-.7 3.7-3 2.8-1.3-1.3-3.2 2.3-.3.2-1.5 3.5-.7-.7-2.3-4.5-.2-.3-1.8-3-2.2-5 2.2-3.5-4.5 4.3-5.5.2-6.5-4.5.5-3.5 3-5.2-5.2V390l-1.5-3.5-2-.5-.3-4-1.7-1.5-.4-.5.5-.5z"/>
  <path class="land"  id="kupiskis" d="M698 269.7l.5-1.7s-2 0-3-.7-1.5-1.5-.5-2.3.8-3.5.8-3.5l-2.8.8-.5-2.8 1-2-2.5-.7V254h3l1-2.7 6-.3v-3.7l-1.7-.8s0-1.5 1.7-2.7 1.8-2.5 1.8-3.8v-3.5l-2-3.2-.3-7-3.2-.5.5-6-1-6.5 6-.3 1-2 2.7-.7 5.3-1 2.5-3.5 3.5 2 1.2-2.3s1.3 1 3 1 2.8-.5 2.8-1.7l.2-5.8-2.7-4.7 1.5-1.5V190l4-.2s-1.3-3.5 2.5-3.5 5.5-1.5 6.7-1.8 5.5-2.5 6.3-3.7l2.5-3.3 2.2 1.8 2.3 2.5-2.8 4.7.5 1.5 2.5 1.5 1.5-2 2.3.7c0 1.6-.5 3-1.8 3.8s-.2 2.5 0 4.3 0 2.7 0 2.7l5 1.3 4.5 4.7 1.3-1 1.5 2.8 3.7-1.3 4-1.2 2.5 1.5 1.8-.5s1.7-.5 3.7.5 2 2.5 2 2.5l3.3-.5s.7-3.5 0-4.5 1-2.5 1-2.5h2.7l-.2-2.8s1.2-.2 2.7-1 1.8.8 2 2.5.3 2.5-1.2 3.8-.8 1.7.7 2 .5 3 .3 5.5.7 2.2 1.5 4-.5 8.2-.8 10-2.7 4.2-3.7 5.5-.8 2-.8 3.5v5.5l2.3 3 1.5 1.2 3 2.8 3.5 5.2 1 5-1.5 2.8-2 1-.5 2.5-4 .2-3.5 1 1 3.5 2.2 2.3-2 2.5-1.2-.5s-2-.8-2.5-2-1.5-1-3-1-5.5 2-5.5 2-5.8 2.2-7.5 2.2-7.3 2.8-8.5 3.5-3.8.8-3.8.8l-1.5-4.3.3-4.5h-5.3s-3.2-1.5-4.2-2.2-3-.8-4.5-.5-2 .2-3.8-1.3-3 .3-4 1-2.7 3.5-2.7 3.5l-2.8.8-1-2.8-4.7-.5-3.3 2-.5 3-4-.2v-2l-1.7-1.5-5.5 2.5s-3.5 0-4.8-.8-3.2.3-3.2.3H698z"/>
  <path class="land"  id="varena" d="M579 708.8l-1.5 2.7h-3.7l.2-4.2 3-.3-1-2 3.8-.2-1-2.8.2-3-.2-4s2.5 0 2.5-1.5.5-3.2 2.7-2 4.5 1.3 5.5 0 3.3-1.5 3.3-1.5l.5-5.7h4.5s0-2-.5-3.3-1-2.2.5-2.2 3-.3 3-1.5 0-2.5 1-2.8 1-2.2.5-3.5-1.3-2.7 0-3.5 1.7-2.7 3-2.7l3.7-.3s2.3-1.2 2.8.5 1.2 2.3 2.2 1.5 2-1.5 3-.2 4.5.7 7.3-.5 5.5-3 6.7-3.3l2.8-.5s.7-5.5 2.2-4 4.8 0 4.8 0l4 .5s-1.5-2.2 0-4.2 1.7-4 1.7-4l-3.2 1s-.5-2.5.7-3.3 2-2.5 2-2.5l-2.7-2s2.5-1 2.5-2.5-1.3-2.7 1.5-2.5 3.2.5 3.2.5l2 4 5.3 1.8.2-5.5s-4.2-.8-3.5-3 .5-5.3.5-5.3l-2.2-1.2s-2.5-2-1.3-2.8 1-3 1-3l5 .3 3.8 1 1.7-1.8 6.3.3-.5 2.2 6 1.8 1-4 4.7-1 1.8-3.3s3.5 2.3 4 .8 5.2-1.5 6 .2 1.7 2.3 2.7 2.3l3.3.2v4.3s-4 2.2-2.5 4.7 3 2 3.5.5 2-2.2 3.2-1.7 4.5-.5 4.5-.5 5-1 6.3 0 4.7.2 4.7.2 1.8-2.5 3.5-2.7 2.8-2.5 4.5-1.3 3.8 1.3 4.3 0 2-3.7 5.2-4 3.8 0 5-.7 5.3-2.3 5.3-2.3l2-.4v.3l.2 4.7-2.5 1.5 1 4.8s-1.2 1-2.7 1-1 2.2-1 2.2 1.7 2.8-4.3 2.8-6.2 2-6.2 2 0 3-1.3 3.2-1 2.5-1 2.5.8 3.5 2 4.3.3 2-.5 3.2-.2 2.5.3 3.5 1 4.5 1 4.5-4.5.8-6.8.8-1.5 2.2-1.5 2.2l1.3 3-4.3.3-.5 4.7s-2.5.5-4.2.5-2.3 1.8-2.3 2.8-1.5 3-4 3.2-2.2 1-4 2-2 2.5-2 4.8 2.5 3.7 4.5 3.7 5.5 2.8 5.5 2.8l1.5 5 .6 6.6-3 1.6-1.7 1.7-2 6-.3 3.2-.4 3 1.8 5 2.2 3 1.3 1.5.2 1.6.5 5-2 6.7-2.8 4.2-4.8 4-2.3 1-1.4 2-4-2.2-2.5-.6-.8 1.8-.5 1.6-2.5-1-.2-3 2.4-4.4 1-4v-1.5l-1-3h-.2l-.4-.7H692l-2-.2h-.5l-.5.3-7.6 3-11.2 7.5-7.2 5.4-3 3.3-5 5.6-.7.8-5 4-7.6 1-11.2-1-1.5-.5-9.6-2.2-5.7-2.8-.5-.8-2.8-3.8.6-5.6.3-7.5 2.5-.2s0-8.8-.3-10-1-7.3-1-7.3-.5-.5-3-.5-3.2-1.7-3.2-1.7-1.8 1.5-3.3 2.2-3.7-.7-5.7-.7-6.3-1.8-8.3-3-4.7 1.5-4.7 1.5l-3-1.5 1.5-3.5h2V713l-2.5-1v-2l-3.3-1.2z"/>
  <path class="land"  id="elektrenai" d="M663.5 562.8l-6.2 2h-.4v-1l-1.2-2.5 1.5-2.5s-.8-2-1-3-.8-2.8.7-3.8l3.3-2.2-.5-3.5 2.2-1-1.2-3 1.2-2.5s-2.2-2-2.2-3.5.5-3.3.5-3.3l3.5-2.2s-2-4 0-4.3 2.7-2.2 2.7-2.2l.5-2.3s1.8-1.2 1-2.7.3-4 1.8-2.3 3.7 1.8 3.7 1.8l3 .7s3-2.7 3.5-4.2 2.8-1.8 3.8-1 3 2.2 4.5 2 4.5-.8 5.7.2 3.5.8 4.5.5l4.8-1.7-.5-6.3-.5-7 4.2-2 2.3.8 3.7-1.5h2.8l2.2 1 1 5.2 2.3 1.3s-1 1.5-1 3.2 3.2 0 4.2-.7 2.8.7 2.8 2.5-.8 1-2.5 1-.3 4.7-.3 4.7 1.3 4.3 1 6.5 2.3 1 3.5 1 1.3-2.7 1.3-2.7l.2-4.8h3.5s3 1.5 5.3 3.5-2 2.8-3.8 3-1.5 2-1.5 3.8 2 2.7 2 2.7 3 .8 3.5 1.8.5 1.2 1.8 2.2.7 1.8-.8 2.3-1.7 2.7-1.7 2.7l-4.5 4s-3.3-.7-5-1.5-4-1.2-4-1.2l-2.8 1s-3.2.7-3.5 3.5-2 3-2 3l-5 6.2-.5 2 1 1.8-4.5 7.5h-5l-2.7-2.5-4.5-1.5-5 3-5-2.3h-4.8s-2.2 1.5-3.7 1.5-3.8-1-3.8-1l-2-.7-4.2-.3-1.8-1.5-1.5 2.3z"/>
  <path class="land"  id="ukmerge" d="M675 435.8c0-1.8-2-1.5-2.2-.5s-2.3.7-2.3.7-.2-2-1.5-4-3-4-3-4l2.3-2.2.2-2.3-5.7-1-.5-3.5-2-3.7-.8-3.3s2-4.7 3-5.5-1.2-2.7-2.5-2.7-5.5-1.8-5.5-1.8l-2.5.8-3.7-1.8.5-1.7s1.2-3.3 1.2-4.8 1-4.5 1-4.5l-2.2-4.2-3.5-1.8.7-8s1.3-3.2 1.3-4.2.5-2.5.5-2.5l2.5-1 1.5-8 1.2-2.5 2.5-1.5 3.8 2s2.2-3.3 3.5-3.8 4.2-2.2 4.2-2.2l4-2.8-1.7-4.2v-5l4.5.7s4.7 1 5.7.8 4-1.3 4-1.3l2.8-.7 1.2-4.8-1.7-2.2-.8-4.8s4.5.5 6 .3 3.8-1.3 3.8-1.3 1.5.5 2.5 2 2.7 2.3 2.7 2.3l1.5 2.5 3-.8 2.5 3.8.5 3.7 4.5 2.8 1.3 6.5-3.5-1.3-2.3 3 1.5 2.8-1.2 3.7v4.5l5.7 2.3 2.3 2.2 3 .5 4-1 3.5.8-1.3 2.5 1.3 1.5 3.5-1 3.5-2 4.2-.5 1 4s-.2 5.2.8 6.5 3.2 3.2 3.2 3.2 0-2.2 1.3-2.7 1.5-.8 2.5 0 2.5 1.2 2.5 1.2l1.7-.7 1.8 2 1.6-1.3.3.5 1.7 1.5.3 4 2 .5 1.5 3.5v1.8l5.2 5.2 3.5-3 4.5-.5-.2 6.5-4.3 5.5 3.5 4.5 5-2.2 3 2.2.3 1.8 4.5.2.7 2.3-3.5.7-.2 1.5-2.3.3 1.3 3.2-2.8 1.3s-2.7 2.7-3.7 3-4.5.7-4.5.7l1.2 3.3-2 1.7-4.2-1.7-4 3.5-1.8-1.3-7-5.7h-2.2s-.8-.5-1.8-2-2 1.2-2 2.2-1.2 2.3-1.2 2.3L743 426l-8.2 4.5-.8 3.8-4.2.5-.5 1.5h-4.8l-.2 2-6.5.2-4-3.7-2.8 1.2-11.5-.5-4.7 5-3-1.7-1.5 2.2-2-.2-2.3-4.8-8.7 7.3-2-4s-.3-1.8-.3-3.5z"/>
  <path class="land"  id="kaisiadorys" d="M601.3 536.5l1-4.2s2.2 0 2.2-1.8.3-3-.7-3.7-1-.8-1-2.8-3.3-3.5-.5-5 5.2-2.5 7-.2 4.7 2.7 7 3 3.5-1.8 4-3 .5-2.3-.5-3.3-.8-2-2-2.2-3.3-.3-3.3-.3l-3-5-2.5-3.5-4-1.7-1.7-.3-1.8-5-2.7-1.7-1.5-.3.2-2.5-1.5-1.7 2.5-1.8 4 .3 2-3.5-1-2.3 9.5-3.7 2.5-1.5 2.3 4.5L628 479l4.3-1 .5-2.2s9-1.5 10.2-1.5 5.5-1 5.5-1l1.3-1.3 3 .3s2 .7 0-2.3-2-4.2-2-4.2l3.5-2.3s-1-4.2.5-3 2 2 3 2.5 5.2 1.3 5.2 1.3l2-.5 2 .2 1.5 2.3 2.5 3 2.5 2.7.8 2.8 6 .2s2 .3 2.7 2.3-.2 1.7 2.5 2.5 6 2.7 6 2.7l1 4.5s4.8-1 6-1 4.3-.5 5 2 1.8 2.3 3 2.5 5.5 3 5.5 3l.5 5.8-3.7 1.5-2.3-.8-4.2 2 .5 7 .5 6.3s-3.8 1.5-4.8 1.7-3.2.5-4.5-.5-4.2-.5-5.7-.2-3.5-1.3-4.5-2-3.3-.5-3.8 1-3.5 4.2-3.5 4.2l-3-.7s-2.2 0-3.7-1.8-2.5.8-1.8 2.3-1 2.7-1 2.7l-.5 2.3s-.7 2-2.7 2.2 0 4.3 0 4.3l-3.5 2.2s-.5 1.8-.5 3.3 2.2 3.5 2.2 3.5l-1.2 2.5 1.2 3-2.2 1 .5 3.5-3.3 2.2s-1 2.8-.7 3.8l1 3-1.5 2.5 1.2 2.5v1l-.5 1.5-4.5 2-3.5-3.3-4.5-2s-2.5-1-2-3.2-2.7-2-2.7-2l-4-.8-.3-1.7h-3l-.5 3H629l-1.2-2-1.8 1.7-1.7-1.5h-4.8l-.5 1.8-3.7-.8v-3l-2.8-1.7-6.2-2.8-2.3 4-2.5 2.3-5.7-2s-1.5-1.8-1.8-3 1-5.3 1-5.3l1.8-5.7 3-4 1.5.2z"/>
  <path class="land"  id="pasvalys" d="M637.5 112.4l4 3 3.3.5 4 3.3 1.5 1.5 2.8.2 2-1.2 3.7-2 1.3-.7 2.5-.6-1 3v4l2 2-3.7 2-.8 3-2.7 1.6.7 2.3 3 1.2.5 3.5 1 2.8 1.5.5s1.3 4.5 2.8 4.7 2.7-1.2 2.7-1.2l2.5 1.5-2.2 2.5 2.5 2 .2 2.5-2.7 3.7 7.7 5s1.3-.2 1.5-1.2 2.5-3.8 2.5-3.8l.3-1.7 3.2-1 1.5 11 3.5.7 1.8 4.3-.3 5.5-7.7 1.2.2 4.3-3.7 3.2v2.5l-1.3.8v4.2s1.3 1 2.5 1.5 1 2 1 3-2.5 2.3-2.5 2.3l-.2 3 1.2 1.5 1 1.7-2.2 3.8h-.8l-1.5.2-1.5 3 .5 2.3-4.2 2.5-2.8-1.5-2 5 1.3 1.2 4.7-.7-.5 2.2-1.7.3-.3 2.2-14.2 2.5-5 .3-1.8-.8v-2.2l1.5-1 2.8.2-.5-3-3.8.5v-3.5h-3.7l-1-5.2s-1-.3-2.3-.3-1.7 1-1.7 1l-1.3 3.5.3 2.8H636l-.2-1.5-9.8-2-1.2 1.5-3.5-.8-1.8 4.5-2.2-1-2 .5-.5 6.5H612l.3 4.5h-2.8l.5 3-4.7-.5-1.3-1.5-2-.2v1.7l-2.5-.2-1.5-2v-9l-3.5-.3-1.5-3.2 2.8-4 .2-8.8h-6.5l-1-3.5-5.2-1.2 2.2-7.8v-4l2-2.7v-5.8l4.3.8 1.2-5.5.5-4.8 4.3-1.7 2-7.5 2.7-5.3 7.3-2-.3-5.5 1-6-6 .3.8-2.8 2.2-2.5-1-3.2-4-.8.3-3 2-2.2-3.5-4.3 3.7-6.2h2.3l1-.4 4-1.2 7-4.6 4.2-2.2 1.8-1 3-1.8 4.3-.4 1.2.7 3 1.6.7.4z"/>
  <path class="land"  id="kedainiai" d="M651.8 360.3l-1.5 8-2.5 1s-.5 1.5-.5 2.5-1.3 4.2-1.3 4.2l-.7 8-2.8.5-3.5 3.8-3.7 1.7s-3.8 2-4.8 2-2.5 1-2.5 1-5.7-.7-6.7-1.5-2.8 1-4.8.8-1.5 1.7-1.5 1.7-.2 1.5-1.7 1.5-2 2.5-2 2.5l-1 2.5-2.3 1.3-.5 4.2s-1.2 2-1.7 3.5-2.5 1.5-3.8 1.5h-3.7l-3.5 3.3-4.5 3.2s-.3 1.3-.3 3 1.5 2.8 1.5 2.8l-5 2.7-.5 2.3 1.3.7-1.5 2-1.5 3.3h-4l.5-3.5s-2-1.5-3.5-1.8-7.3-2.7-7.3-2.7-2.2-2-3.5-2-2.7-.8-2.7-1.8-2.8-5.5-2.8-5.5-1-1.5-2.7-1.5-2 2.8-2 2.8l-4.5 2-1.3 2.5-12.2.2v-1.7l-4.8.5-2.2 1.7h-10.5L519 425l-2.7.8-4.8-3.8v-3h1l3-3.4-.5-3-1-4s.7-.7 1.8-.7 1.8-1.2 2.6-2.3c.8-1-.8-3.3-.8-3.3v-4l-4 1 2-9.4s2-.6 3.3.8c1.2 1.4 3-.5 3-.5l-2-4 1.6-3.2-2-1.8.4-1.7h5l-3.7-3.3 1.6-.8-1.2-2.5-2.6-.7.8-3.3-2-2.2-3-8.3-2.7 1.4-1.8-2 .5-8.3 3.5-.8V347l-2.7-.8.8-2h4l.7-6h9.5l1.5-5.4s2.5-5 3.7-5.2 6.3-.5 6.3-.5l1-3.8 10.7-5.7 7.3-1 2.5-2.8 1.3-.2 5.3-.8v5l2.2 2s.8 3 1.5 4.3 4 3.7 4 3.7 1-1 2.8-1.7 3.2-.8 4.5 1l3.5 4.7 3.7 3.3s2.3 3 1.3 4-4 5.7-4 5.7l4 .5 4.5-.5 3.2-3 3.3.5v3.8h4.7l2.5-3.3 4.5.5 1.5-2 .3-5.2s3.5 1 4.5 1.5 1.7 2.2 1.7 2.2v1.8l3.8 1 5.5 3 2-3.5s2.7 2.7 4.2 3l5.8 1.2c1.2.3 3.2.5 3.2 1.5s-.5 4.5-.5 4.5l3 1.5-1.2 2.3s.2 2.5 1.7 3l3.8 1z"/>
  <path class="land"  id="alytus" d="M575.3 605.8h4s1.5 1.7 2.2-1.5-1.7-4.8-1.7-4.8l1.5-6.5s.2-1.2 2.2-1.7 4.3-2 4.3-2h3.2l3.5 1.2 1 3.8 1.5 2.2 5.5-3.2 4.7.5 4.3.5 2.5-4.8s2.3-.2 3.8-.5 4.5-2.2 4.5-2.2l3.7.7-2.5 2.5.8 4.8 3 .7 3.5 2.3 4-.8 6.2.3 3.5-.5 1.5-2 1.5 5.5 1.5 1.2s-.5 2-.5 3.3-1 2.5-2.2 3-2 3.7.2 3.2 4.3 2.3 4.3 2.3 0 2.2.5 3.5 0 2.5-1.5 3.5-.3 3.5-.3 3.5l3 .2s.3 2.3-1 3 .3 2.3 1.3 2.8l2.2 1.2s.3 3-.5 5.3 3.5 3 3.5 3l-.2 5.5-5.3-1.8-2-4s-.5-.2-3.2-.5-1.5 1-1.5 2.5-2.5 2.5-2.5 2.5l2.7 2s-.7 1.8-2 2.5-.7 3.3-.7 3.3l3.2-1s-.2 2-1.7 4 0 4.2 0 4.2l-4-.5s-3.3 1.5-4.8 0-2.2 4-2.2 4l-2.8.5-6.7 3.3s-6.3 1.7-7.3.5-2-.5-3 .2-1.7.3-2.2-1.5-2.8-.5-2.8-.5l-3.7.3s-1.8 2-3 2.7-.5 2.3 0 3.5.5 3.3-.5 3.5-1 1.5-1 2.8-1.5 1.5-3 1.5-1 1-.5 2.2.5 3.3.5 3.3h-4.5l-.5 5.7s-2.3.3-3.3 1.5-3.2 1.3-5.5 0-2.7.5-2.7 2-2.5 1.5-2.5 1.5l-2.5-1.5s-1.3-1-2.8-1.7-1.2-1.3-1.5-2.3 1-4.5 1-4.5 1-2.7 1-4.7.5-5.5.8-6.5.2-1.8 1.7-2.5-1.5-2.3-3-3-1.5 2.5-1.5 2.5-2.7-2-3.7-3-1.5-3.5-2.3-4.8-3.7-.2-3.7-.2l-7.3-.8-2 3-3-5.7-3 1s-1.5-3.3-3.2-4.3-3.5-3-3.8-4.5-1.2-2-3.5-2.7-3.2-1-4.5-.3-4 2.8-4 2.8l-3-5.3-3.2-.5-1.5-2-3.3 3-7.5.3.3-7.8s.7-.5 2.5.8 1-2.5.5-3.8-.3-2.5 0-3.7 2.5-.3 2.5-.3l-.3-3.2h-3.7l-1-5-3.5 3.5-3.7-.8s-.4-4.2-1-5.7 0-8.5 0-8.5l4.3-.8 5-1.5c1.3-.5 5.5-3.7 5.5-3.7l3-.3-.3-2.7 1.5-2 4.6-1.5 1.5 1s1.3 1.5 1.6 2.5l.5 4.2 2.3 2.8s2.7-1.3 3.2-2.3c.4-1 3 2 3 2s1.4 1.8 2.3 1.8c1 0 3.3.4 3.5.5l4 1 2-1.5 7.7.2.5 3.3 7-1.3-.2-4.5 3.2-1 6.5-.2 1.3-2.5zm18.5 27.2l3.2-.5-3.2-3-2.5-.5 1-1.7-2.5-2s-1.8 1-3-.3 2-1.7 3.2-2.2 1.8-2.5 1.8-2.5h-2.5l-3.3 1s-1.5 0-3.2-.8-1.8 1.5-1.8 1.5l-.2 5.5-3.8 1.3-3.7 3.2 3.2 1.3h3.5v2.2l-2.5 2.5 3.3 1.3.7-2.3h3.3l2.7 3.3h3.5l.5-2.5 3.3 2-.3-4.8-.7-2z"/>
  <path class="city"  id="panevezys_city" d="M647 274.8c-1.5.5-2.5 1.2-2.7-.5s-1.5-.5-2 1-1.8 1.7-2.5-.5-1.8.5-1.8.5h-6.5l.3-5-2.3-.8s-1.2-.7-2-1.7-1.2-3.3-1.2-3.3h-6l3.5-1.5 1.5-1.2h3V259l2.7-1h2.8s1.5 0 3.5.3 2-.5 3.5-3 2.7 1.5 2.7 3 2 2.2 2 2.2l4.3.3.7 1.7-.5 2.3s-1.5-1.3-3-1.8-1.2 3.3-1.5 4.3 0 2-1.2 2.5 0 2 0 2h4.7s-.5 2.5-2 3z"/>
  <path class="land"  id="birstinas" d="M604.3 590.5s3 .3 3 2.8v.5l-4.8-.5-5.5 3.2-1.5-2.2-1-3.8-3.5-1.2h-3.2s-2.3 1.5-4.3 2-2.2 1.7-2.2 1.7l-1.5 6.5s2.5 1.5 1.7 4.8-1.2 1.5-2.2 1.5h-4l-5.5-3.8-3-3.2-4.5-2.8s-1.3-2 0-3.2 3-2.3 3-2.3 2.2-2.7 4-2.7 3.5-.8 3.5-.8l3.5-3 1-2.7s-.8-2.5 1.5-2 3.5 1 3.5 0 .7-3.3-1.3-3.3-3-.2-4-1.2l-3.5-3.5.8-3.8s-1.5-3.5 1.5-3.7 3.7.7 4.5 2 2.2 5.2 2.2 5.2 2.3-1 3.8-.7 3-.3 3.5 1.2.5 2.8 2.2 2.8 2.8 2.5 2.8 2.5 1.7 2.5 3 3.5 2.7 1.2 4.5 1.5 2.7 1.5 2.5 3-1.8 3.7-1.8 3.7l1.3 2z"/>
  <path class="land"  id="kaunas" d="M594.5 489.8l-4.5-2.5-1.7 1-1.8-1.8-8.5-.5-1.7-2-3.3-3-.5-2.5-2.7.5-3.8-.5-2.2 1.8-3.5.2-2.5 2.5h-4.5l-1-1.7-2.3.7-1.5-3.2-1 3s.3 1.5.3 3.2-3.8 1.3-4.8.8-3-.5-3-.5l4.5 2.7 2 2.3 4.3 2.2h3l3.2 1.8 2 3-.5 3.7-2.7.5-3.3 2 2 4 1.5-1.5 2.5.5.3 2.5h2.5l.2-2 3.5.3 3.3.7s1.2 1 1.2 3.5-1.2 4-1.2 4l4.5-3 2.7-2.7 1.5 1.7s2-.2 2.8-1.2 3.2.2 3.2.2l1.8 1.3 2.2-2.5s-1-1.3-2.7-1.8-1.8-1-1.3-2l2.5-5.2 2.5-4.8 2-1.5 1.3-2.5 3.2-1.7zm-106.2-42.5l5.5-3.8 1.5-5 3.7-4.7s.5-8.5.3-9.8 1.2-4 1.2-4l2.3-6.5 3.5-1.4 1.5 1.7-1 4.7 4.8.5v3l4.7 3.8 2.7-.8 1.8-1.5h10.5l2.2-1.7 4.8-.5v1.7l12.2-.2 1.3-2.5 4.5-2s.2-2.8 2-2.8 2.7 1.5 2.7 1.5 2.8 4.5 2.8 5.5 1.5 1.8 2.7 1.8 3.5 2 3.5 2 5.8 2.5 7.3 2.7 3.7.3 3.5 1.8l-.5 3.5h4l1.2 2s2-.3 3-1l1.5-1 1.5 1.7 2.8-1s1.7-.2 2 1.5-1.3 5-1.3 5l-3.7 6 7.2 5-3 .5v2.3H592v4.2l6.5 2.8-.7 2.7-.3 2.8-2 5.2h4.5l2.3 1.5-2.5 2.3 2 1-2.3 3.7 1.8 1.3 2.2 1.2 1 2.3-2 3.5-4-.3-2.5 1.8 1.5 1.7-.2 2.5 1.5.3 2.7 1.7 1.8 5 1.7.3 4 1.7s2 2.5 2.5 3.5l3 5s2 0 3.3.3 1 1.2 2 2.2 1 2 .5 3.3-1.8 3.2-4 3-5.3-.8-7-3-4.3-1.3-7 .2.5 3 .5 5 0 2 1 2.8.7 2 .7 3.7-2.2 1.8-2.2 1.8l-1 4.2-1.5-.3-1.5-.4-.5-1.8-4.8 2-2.5-4.5-8-4-.7 3.8-2.3 2-4 .2-4.2 2.3-1.3-1.8-3.7-.2v2.2l-2.8.8-1 2-4.7-.5-.3 2.2h-3.2l-2.3 3V539l-2.7-.2 2-2.5-2.8-3.3-3.7-1-1.5-2.5.7-2.5-2.5-5.5-6.7-.2-2-2-5.5-1.8-4.4 3.5-2-2.5-2.7-3 .7-2 1-3.2s-1-2-2.2-2.5c-1.2-.5-2.7.7-2.7.7l-2 .5-1.3-3-3-1.7-.2-1.8 5.4-1.5-6.5-4.7s-3.2 0-4.7.7-1.7 4-1.7 4l-2-2.7-2.5-1.5s-.5-5-.5-6.5-1-3.8-1-3.8l-11.3-5.2 1.2-2.5 3.4-1 2.4-5s2.2-.8 3.2-.3l3.2 1.8s1.5-.3 2.7-.3c1 0 3-.5 3.6-1.7l3.2-5.8s2-.2 4.6 0c2.7.3 3-1.7 2.5-2.7-.6-1-.4-2.5 0-4 0-1.5-1-3-1-3l-4.8-2.3c-1-.5-3.2-.5-4.6 0s-4.2-.2-6.4-.7c-2.2-.5-5.6-2.8-6-4-.4-.8-1.8-1.5-3-2v-.5z"/>
  <path class="land"  id="pakruojis" d="M507.6 181.7l4 1.6 1.8-3.8-3.3-2-1.2-1 1.3-2 2.6.3v-3.3l1-1.7 5.3 3 4.4-4-1-2.5 9.2-7.8-4-2.7 6.5-5.3-.7-2.2 1.3-1.6 1.7 1.4 5.2-4.6 1.7 1.3 3.3-.3 4.4 1 1-1.2 3-.3.6-3.4s-1.6-1-1.3-2.2c.2-1.4 2.4-3.6 2.4-3.6h1.4s0-3.2 1-4c.7-1 1.3-4 1.3-4l4.7-1.4 2.2-8.8 3-.3-1-2.5.8-4.4 4.6-.5.6-8h4.4l2.4.2 1.7 1.8 1.8 2 4 6 1 4.3 1.6.3h2.5l1 .6 2 1.8 2 1.2 1.3.8.5.3 3.7 1-3.7 6.2 3.5 4.3-2 2.2-.3 3 4 .8 1 3.2-2.2 2.5-.8 2.8 6-.3-1 6 .3 5.5-7.3 2-2.7 5.3-2 7.5-4.3 1.7-.5 4.8-1.2 5.5-4.3-.8v5.8l-2 2.7v4l-2.2 7.8 5.2 1.2 1 3.5h6.5l-.2 8.8-2.8 4 1.4 3.3.6 1.4-3 1-1.5 2-3.7.5-.8 3.8h-3.5l-1.5 3.5-6-.5-4.5 2.7s-2 .3-3.7.3-3.3 2.7-3.3 2.7l-2.2-1.2s-2.5 1.2-3.8 1.2-2.7-1.7-2.7-1.7l-2.5-.8.2-5.5 1.8-3.5s-.5-1-1-2.7-2-1-3.3-.8l-2.5.5-1.2 1.8.7 1.5-2 1.2-1.7-1.7-2.3-1.5-3.5-.3-1.2-3.2-2.8 1.5-2.2-.3-1.5 2-6-1.7 1-4.3-2.8-2.2-1.7 1.5-6-3.3-2.5.5-2.5-2s3.8-3 3.5-4c-.2-1.2-.5-3.2-.5-4.3 0-1 .5-4.4.5-4.4l-6-6.3 2.2-1.4 6-3.6s0-3.3.4-4.7c.2-1.3-.5-2.8-1.4-2-1 1-2 1-2 1l-2-1.5h-2.4l-1.6-1.4 1.6-2.7z"/>
  <path class="land"  id="panevezys" d="M595 226l-.6-1.4 3.6.2v9l1.5 2 2.5.2v-1.7l2 .2 1.3 1.5 4.7.5-.5-3h2.8l-.3-4.5h2.8l.5-6.5 2-.5 2.2 1 1.8-4.5 3.5.8 1.2-1.5 9.8 2 .2 1.5h3.3l-.3-2.8 1.3-3.5s.5-1 1.7-1 2.3.3 2.3.3l1 5.2h3.7v3.5l3.8-.5.5 3-2.8-.2-1.5 1v2.2l1.8.8 5-.3 14.2-2.5.3-2.2 1.7-.3.5-2.2-4.7.7-1.3-1.2 2-5 2.8 1.5 4.2-2.5-.5-2.3 1.5-3h1.5l.8 1.5 1.5 2 2-.5.7 3-1 1.8 1.5 2 1-2.3 2-2 2.8-2.2 1.2-3h2.8l.7 2.7 2.8.3 1 6.5-.5 6 3.2.5.3 7 2 3.2v3.5s0 2.5-1.8 3.8-1.7 2.7-1.7 2.7l1.7.8v3.7l-6 .3-1 2.7h-3v2.8l2.5.7-1 2 .5 2.8 2.8-.8s.2 2.8-.8 3.5-.5 1.5.5 2.3 3 .7 3 .7l-.6 1.7-.7 1.6 2 2.7-2.3 4.3 4.3 1 2.5 2.7s-3.8 2-4.3 3.5-3.2-.7-3.2-.7l-2.8-2.3-5.5 2.8s-.2 2.7.8 3.7 4.2-1.2 4.2-1.2l2.5.5 2.3 6-.3 5.5s-3.2.2-4.7.7-2.3 2.8-2.8 4 0 2.5.8 3.8 1 2.2-.5 3.7 1 3.5 1 3.5l-.5 3-2.8 5.3-3 4.2.8 4.8 1.7 2.2-1.2 4.8-2.8.7-4 1.3-5.7-.8-4.5-.7v5l1.7 4.2-4 2.8s-3 1.7-4.2 2.2-3.5 3.8-3.5 3.8l-3.8-2-2.5 1.5-1.2 2.5-3.8-1c-1.5-.5-2.2-2-1.7-3l1.2-2.3-3-1.5s.5-3.5.5-4.5-2-1.2-3.2-1.5c0 0-4.3-1-5.8-1.2s-4.2-3-4.2-3l-2 3.5-5.5-3-3.8-1V340s-.7-1.7-1.7-2.2-4.5-1.5-4.5-1.5l-.3 5.2-1.5 2-4.5-.5-2.5 3.3h-4.7v-3.8l-3.3-.5-3.2 3-4.5.5-4-.5s3-4.7 4-5.7-1.3-4-1.3-4l-3.7-3.3-3.5-4.7s-2.8-1.8-4.5-1-2.8 1.7-2.8 1.7-3.2-2.5-4-3.7-1.5-4.3-1.5-4.3l-2.2-2v-5l-5.2.8v-.5l4.3-6s1-3 1.2-4.8 1.5-5.7 1.5-5.7 1.3-2 2.8-1.3 5 1.5 5 1.5 1.7-2.7 3.2-2.7 5.8.7 5.8.7l2.7-3-2.5-3.2v-4l-1.5-2.5 3.3-4.3 4.7.3.3-3-1.8-2.5-2.7-1.8s-2-1.7-1-2.2 2.2-1.5 2.2-1.5v-6.5l-4-1 1.3-2.8-3.3-6.2-4.7.7-1-4.2-1.5-2.3-.3-8.7 6 .5 1.5-3.5h3.5l.8-3.8 3.7-.5 1.5-2 3-1zm55.5 36.5s.3-1.7-.7-1.7l-4.3-.3s-2-.7-2-2.2-1.2-5.5-2.7-3-1.5 3.2-3.5 3l-3.5-.3H631l-2.7 1v2.8h-3l-1.5 1.2-3.5 1.5h6s.5 2.3 1.2 3.3 2 1.7 2 1.7l2.3.8-.3 5h6.5s1-2.8 1.8-.5 2 2 2.5.5 1.7-2.8 2-1 1.2 1 2.7.5 4-3 2-3h-4.7s-1.3-1.5 0-2 1-1.5 1.2-2.5 0-4.8 1.5-4.3 3 1.8 3 1.8l.5-2.3z"/>
  <path class="land"  id="radviliskis" d="M590 272.8l1.8 2.5-.3 3-4.7-.3-3.3 4.3 1.5 2.5v4l2.5 3.2-2.7 3s-4.3-.7-5.8-.7-3.2 2.7-3.2 2.7-3.5-.7-5-1.5-2.8 1.3-2.8 1.3-1.2 4-1.5 5.7-1.2 4.8-1.2 4.8l-4.3 6v.5l-1.2.2-2.5 2.8-7.3 1-10.7 5.7-1 3.8s-5 .2-6.3.5-3.7 5.2-3.7 5.2l-1.5 5.5h-9.5l-3.4-.4-2-3.2v-3l2.5-3.6-5.3-1-1.4-3-4.5 1.2-3.6.6v4.7c0 1-.6 2-1.6 3s-2.6-.5-2.6-.5l-1-2.5-8-3.6-.3-2.7-1.8-2-10.8-5 2.8-2 3.3.5-.3-2.8-2.2-1h-2.5l-.5-5.3 1.4-2.5-1.4-2.2.8-1.7h2.5l.5-3.6-2-2 1-2.6-3.4 1-.3-3.5-2.4-3 1-2-1.5-1.5s.6-2.6-1-2.6-6.6-1-6.6-1l-3-1.2v-2l-2.6-.4V274l2.8-6.5 5.5-9h2l4.2-7.3 2-6.6 4.6.8 1 2.8 3-1.4 1.6-2.7.8-3.6-2.8-2.7 2.5-3 3.5.5 5.8-9.7 3.3.6 1.7-3 2.4.3 1.4-2 2.3.7 2-6.4 3 1.4 2.5 2 2.5-.5 6 3.3 1.7-1.5 2.8 2.2-1 4.3 6 1.7 1.5-2 2.2.3 2.8-1.5 1.2 3.2 3.5.3 2.3 1.5 1.7 1.7 2-1.2-.7-1.5 1.2-1.8 2.5-.5s2.8-1 3.3.8 1 2.7 1 2.7l-1.8 3.5-.2 5.5 2.5.8s1.5 1.7 2.7 1.7 3.8-1.2 3.8-1.2l2.2 1.2s1.5-2.7 3.3-2.7 3.7-.3 3.7-.3l4.5-2.7.3 8.7 1.5 2.3 1 4.2 4.7-.7 3.3 6.2-1.3 2.8 4 1v6.5s-1.2 1-2.2 1.5 1 2.2 1 2.2l2.7 1.8z"/>
  <path class="city"  id="alytus_city" d="M589.3 620.3h2.5s-.5 2-1.8 2.5-4.5 1-3.2 2.2 3 .3 3 .3l2.5 2-1 1.7 2.5.5 3.2 3-3.2.5.7 2 .3 4.8-3.3-2-.5 2.5h-3.5l-2.7-3.3h-3.3l-.7 2.3-3.3-1.3 2.5-2.5v-2.2h-3.5l-3.2-1.3 3.7-3.2 3.8-1.3.2-5.5s0-2.2 1.8-1.5 3.2.8 3.2.8l3.3-1z"/>
  <path class="land"  id="jonava" d="M588.5 435.3c-1 .7-3 1-3 1l-1.2-2 1.5-3.3 1.5-2-1.3-.7.5-2.3 5-2.7s-1.5-1-1.5-2.8.3-3 .3-3l4.5-3.2 3.5-3.3h3.7s3.3 0 3.8-1.5 1.7-3.5 1.7-3.5l.5-4.2 2.3-1.3 1-2.5s.5-2.5 2-2.5 1.7-1.5 1.7-1.5-.5-2 1.5-1.7 3.8-1.5 4.8-.8 6.7 1.5 6.7 1.5 1.5-1 2.5-1 4.8-2 4.8-2l3.7-1.7 3.5-3.8 2.8-.5 3.5 1.8 2.2 4.2s-1 3-1 4.5-1.2 4.8-1.2 4.8l-.5 1.7 3.7 1.8 2.5-.8s4.3 1.8 5.5 1.8 3.5 2 2.5 2.7-3 5.5-3 5.5l.8 3.3 2 3.7.5 3.5 5.7 1-.2 2.3-2.3 2.2s1.8 2 3 4 1.5 4 1.5 4 2 .3 2.3-.7 2.2-1.3 2.2.5.3 3.5.3 3.5l2 4 1.5 3.2 3.2 2.5 2.3 4.5-2.5 2.3v3.2l-5.3.3-.7 5.2-3.8 1.8-1 3-2.5-3-1.5-2.3-2-.2-2 .5s-4.2-.8-5.2-1.3-1.5-1.2-3-2.5-.5 3-.5 3l-3.5 2.3s0 1.2 2 4.2 0 2.3 0 2.3l-3-.3-1.3 1.3s-4.2 1-5.5 1-10.2 1.5-10.2 1.5l-.5 2.2-4.3 1-10.2 4.3-2.3-4.5-2.5 1.5-9.5 3.7-2.2-1.2-1.8-1.3 2.3-3.7-2-1 2.5-2.3-2.3-1.5h-4.5l2-5.2.3-2.8.7-2.7-6.5-2.8v-4.2h3.5V453l3-.5-7.2-5 3.7-6s1.5-3.2 1.3-5-2-1.5-2-1.5l-2.8 1-1.5-1.7s-.5.2-1.5 1z"/>
  <path class="land"  id="joniskis" d="M488.8 93.8l6 2.7 4.5 2 5.7 2 4-.5 5-3 8.7-5.2 2.8-.5 1.2-.2h4.4l1-.2 4-.4 3.8.2h.7l3.2 1 .4 1-.6 2-1.3 2.8-.5 3 1 2 .7.4 1.3-.2L547 99l1.5-1 2.3-.3 1.6.5.5.2 4.2 1.4 8-1 3.3 1.8 3 .3h3.7l-.6 8-4.6.4-1 4.4 1.3 2.5-3 .3-2.3 8.8-4.7 1.4s-.6 3-1.4 4c-1 .8-1 4-1 4h-1.3s-2.2 2.2-2.4 3.6c-.3 1.3 1.3 2.2 1.3 2.2l-.5 3.3-3 .2-1 1.3-4.5-1-3.3.2-1.7-1.3-5.2 4.7-1.7-1.3-1.3 1.6.8 2.2-6.3 5.3 4 2.7-9.4 7.8 1 2.4-4.4 4.2-5.3-3.2-1 1.7v3.3l-2.6-.3-1.2 2-4.2-3.6-2.2.2-3.3-3-1.3.5-5.8-2.3s1.8-2 .2-3.5l-3-3-2 1.5-3-1.4-4.5-3.7s1.4-1.4.6-2.2c-.8-.8-2-1.6-2-1.6l-3.2-.3-3 .7 2.5 2.7-1 1.4-7.8-5.8 3-.8 2.2-3.6 1-3.3-3-1.7-1.4 1.4-1.6-1.4-5-.5-1.6 2.3s-2.8 2.2-4 1c-1-1-2-1.6-2-1.6l.7-2s-2-.7-2.6-2.4c-.6-1.6.8-4 .8-4l-4.7-1.5-3.3.8-2.4 1.3-.3-.6-2.6-3.8.5-2.2-1-2.8-2.3 1.4-2.8-2.5v-2.7c0-1-.5-2.3 1-2.3 1.2 0 3-.8 3-.8s-.7-2.2-1-3.8l-.8-4.8.4-4.7 4.2-3 1-1 1.8-1.3 1-.8 3.6-4.6-.8-5 5.8-1.2 6.3-1.2 2.7-.4h1.6l4-2h4.4l6 .2 9.4 3.6 1.6 2.6.2.4z"/>
  <path class="land"  id="druskininkai" d="M563.3 752.6l-4-.3-.5-.2-1-.3-2-.7h-.3l-.6-.2-.2.2-.3.3-1 1.5-.5-.3s-1.7-2.2-2.7-3.2-3-3.8-3-3.8l6-5.2.2-2.5 3.5-1.8-.5-3.2-2.5 1.2s-1.7-.2-1.5-2.2 3.3-2.8 2.3-4.3-2.8-4.7-1-6.5 1.5-3 1.7-4-1-2.5-1-2.5l-7.2-2.7.7-3.8s-2-3-.7-3.5 1-2.2 1-2.2-1-1.8.5-1.8 3 .3 3.5-1 1.7-2.5 3.5-2.2 4 .2 4 .2l1.7-3 .3-3.5 2.5 1.5s1-.2 2.7-.2 4.3 1 4.3 1l2.2-1.5c1.5.7 2.8 1.7 2.8 1.7l2.5 1.5.2 4-.2 3 1 2.8-3.8.2 1 2-3 .3-.2 4.2h3.7l1.5-2.7 3.3 1.2v2l2.5 1v2.8h-2l-1.5 3.5 3 1.5s2.7-2.8 4.7-1.5 6.3 3 8.3 3 4.2 1.5 5.7.7 3.3-2.2 3.3-2.2.7 1.7 3.2 1.7 3 .5 3 .5l1 7.3.3 10-2.5.2-.3 7.5-.5 5.5-.8-.8-5-3.2h-3L600 751l-1.8.5-3 .7-4 .8-1.4.2h-.2l-5 1.5-5 .7h-.4l-2.8-1.8-2.8-2-4.3-3.5-2.8.2.4 2.8-1.4 1-1.2.7h-1z"/>
  <path class="land"  id="lazdijai" d="M553 752.5l.4.3-.4.5-2 2.3-2.3 1-.8.6-.4.2.2.2 2 2.2.3.3 1 1.5.6.8-.5 2.5-2.6 1.2h-.2l-3-1-3.4-5.5-3.7-2-8.8-.4-.4.4-2.8 2-5 2.4h-2.5l-1-.2-1.8-3.2-.3-.6-3.7-2.7-.8-.3-3-1.4-7-4.6-1-.6v-.3l-2-4.8-.3-1v-.4l.4-3 .4-2 1.3-2 1.2-1.7.2-.5.6-3.8-.2-3.4v-2.8l-.5-7.2V714l-1.3-9.2-.8-3.7-1.7-3.6-1.5-1-1.4-.8h-.4v-.2l-4-1.5-.6-1-2.4-2.5-.5-.6-.5-.8-1.3-1.8-.6-1.3-.8-1.8-.2-.4-2-3.5-1-1-2.3-2-1.7-1.4-4.6-2-1.4-.4v-4.3l1-2.5s2-1.8 1.2-3c-.8-1.3-2.5-2.8-2.5-4.5s2.2-2.3 4.2-2.8-.4-3-.4-3l-.4-2.7 1.4-1 .5-3.5 3.8-1.8-.5-3.7h3.7l4-1.8 2.4.8 2.2-.5v-5.5l-.5-3 3-.5 2.5-1.5c1-.8 4-2.3 4-2.3h3.6l3.8.8 3.5-3.5 1 5h3.7l.3 3.2s-2.3-1-2.5.3-.5 2.5 0 3.7 1.2 5-.5 3.8-2.5-2.3-2.5-.8l-.3 7.8 7.5-.3 3.3-3 1.5 2 3.2.5 3 5.3 4-2.8s2.3-.5 4.5.3 3.3 1.2 3.5 2.7 2 3.5 3.8 4.5 3.2 4.3 3.2 4.3l3-1 3 5.7 2-3 7.3.8s3-1 3.7.2 1.3 3.8 2.3 4.8 3.7 3 3.7 3 0-3.3 1.5-2.5 4.5 2.2 3 3-1.5 1.5-1.7 2.5-.8 4.5-.8 6.5-1 4.7-1 4.7-1.2 3.5-1 4.5 0 1.5 1.5 2.3l-2.2 1.5s-2.5-1-4.3-1-2.7.2-2.7.2l-2.5-1.5-.3 3.5-1.7 3s-2.3 0-4-.2-3 1-3.5 2.2-2 1-3.5 1-.5 1.8-.5 1.8.2 1.7-1 2.2.7 3.5.7 3.5l-.7 3.8 7.2 2.7s1.3 1.5 1 2.5 0 2.3-1.7 4 0 5 1 6.5-2 2.3-2.3 4.3 1.5 2.2 1.5 2.2l2.5-1.2.5 3.2-3.5 1.8-.2 2.5-6 5.2s2 2.8 3 3.8 2.7 3.2 2.7 3.2z"/>
  <path class="city"  id="kaunas_city" d="M543 485.8c1 .5 4.8 1 4.8-.8s-.3-3.2-.3-3.2l1-3 1.5 3.2 2.3-.7 1 1.7h4.5l2.5-2.5 3.5-.2 2.2-1.8 3.8.5 2.7-.5.5 2.5 3.3 3 1.7 2 8.5.5 1.8 1.8 1.7-1 4.5 2.5-3.2 1.7-1.3 2.5-2 1.5-2.5 4.8-2.5 5.2s-.5 1.5 1.3 2 2.7 1.8 2.7 1.8l-2.2 2.5-1.8-1.3s-2.5-1.2-3.2-.2-1.8 2.5-2.8 1.2l-1.5-1.7-2.7 2.7-4.5 3s1.2-1.5 1.2-4-1.2-3.5-1.2-3.5l-3.3-.7-3.5-.3-.2 2h-2.5l-.3-2.5-2.5-.5-1.5 1.5-2-4 3.3-2 2.7-.5.5-3.7-2-3-3.2-1.8h-3l-4.3-2.2-2-2.3-4.5-2.7s2 0 3 .5z"/>
  <path class="land"  id="marijampole" d="M522.4 563.8l3.7-.5 2.3 1.5-2.4 1.2-1 1.5-3 .3v1.5l2 2.2 4.6 1 3.6 5-5.3 4.3 2.3 4.5 3 1.2.4 2.8 1.8 2 3-1 2.6-1.8 1.8 1.3.7 5.2s1.8 1.3 3 2.8c1.2 1.5 2 3.7 1.5 4.7s-.8 3-.8 3l-3 2.5v3.3s-2.4-.5-3.4-.5-2.4-1.8-2.4-1.8-2.5-3-3-2c-.4 1-3 2.3-3 2.3l-2.3-2.8s-.2-3.2-.4-4.2c-.3-1-1.5-2.5-1.5-2.5l-1.4-1-4.6 1.5-1.5 2 .2 2.7-3 .3s-4 3.2-5.5 3.7l-5 1.5-4 .8s-.6 7 0 8.5c.4 1.5 1 5.7 1 5.7h-3.8s-3 1.5-4 2.3l-2.4 1.5-3 .5.6 3v5.5l-2.2.5-2.5-.8-3-3-.3-4.7-6.4-1.8-2-2.7-3.6-.8-1.5-2.5h3.7l2.6-1-2-2.5-4-1.2V616l2-.7s1-2.5 1.3-3.8c.2-1.2-1.3-1.7-2.3-2-1-.2-3 .5-3 .5s-2-.2-3-.7c-1-.5-1.6.2-2.3 1.2-.8 1-1.5 2.5-1.5 2.5l-3.5-.2-3-1.8-6.8-3.5-4.2-2.2 2.2-5h4l.2-2.8 2-4.2s.3-2.5-1-3-2.6-.8-2.4-2.3l.8-5.2 6.4-2 4.4 3.7 1.7-2 .4-3.5 4-5s0-5.7 1.4-9l2.4-6.7 3.5-.3s1-1 1-2v-4.7l2-.8 1-2 3.3-.2 2 2.7h2.7l1.4-2s2.3-1.5 2.6-.5c.2 1 1 1.8 1 1.8h2.4l1-3.3 3.2.8 1 8 3.6.5 1 1.5-.5 2.2 1.8.8 2.5 4 .7 2.2 2.2-2.2s4.5-1.5 5.4-1.5c1 0 2-1 3-.8l4.6 1.3z"/>
  <path class="land"  id="kazlu_ruda" d="M474.6 551.3l-7.6-2-3.6-1.8 1-3v-4.2l-.3-6 2.3-4.8-4.2-1.2 3.6-10h2.2l.7-4.3-2.4-1.2.5-2.8-2.2-.2v-2.5l1.3-2.5 2.4-3.3-2-.7-.2-1.8 4.2-1.2 3.2.2 9.3-12.5 1.2-4.2 11.3 5.2s1 2.3 1 3.8.4 6.5.4 6.5l2.7 1.5 2 2.7s.3-3.2 1.8-4c1.5-.7 4.7-.7 4.7-.7l6.3 4.7-5.3 1.5.2 1.8 3 1.7 1.4 3 2-.5s1.5-1.2 2.8-.7c1.2.5 2.2 2.5 2.2 2.5l-1 3.2-.7 2 2.7 3 2 2.5-2.5 2.5.7 4.3-3 1-2.6 1 .2 2.2h4s.4-1 1.4-1.2c1-.3 3.7-.3 3.7-.3s-.6 2-1.3 3.3c-.8 1.2-.8 2.5-.8 2.5s.2 1 2 3c1.6 2 1.6 3.5 1.6 3.5l-4.2 2.5s-.7 2.5.3 3.5l2 2.2 3.4 8-2 2v2.3l-3.6.5-4.6-1.3c-1-.2-2 .8-3 .8s-5.4 1.5-5.4 1.5l-2.2 2.2-.7-2.2-2.4-4-1.7-.8.5-2.2-1-1.5-3.6-.5-1-8-3.2-.8-1 3.3h-2.4s-.8-.8-1-1.8c-.3-1-2.5.5-2.5.5l-1.3 2H483l-2-2.7-3.2.2-1.2 2-2 .8z"/>
  <path class="land"  id="raseiniai" d="M525 379.5h-5l-.3 1.7 2 2-1.7 3.2 2 4s-1.8 1.8-3 .4c-1.4-1.4-3.5-.8-3.5-.8l-1.8 9.4 4-1v4s1.5 2.2.7 3.3c-.8 1-1.6 2.2-2.6 2.2s-2 .5-2 .5l1.2 4 .5 3-3 3.5h-1l-4.7-.6 1-4.7-1.5-1.6-3.6 1.4c-.3-.2-1.3-1-2.2-1-1-.4-6.5-2-7-3s-3.7-.4-3.7-.4l-2.8 1.8-2-2-5 .2-.5-6.5s-3.7-1.2-4.7-1l-4.3.5-2.2 2s-3.3.8-4.3-.2-2.2-1-3.7-.8-4.8-.2-4.8-.2l-4.7.2v-4.7l-.8-4.5-4.5-.3-4 2.3-4.5 1-1-1.5s-2-.8-3 0-1.7 3-1.7 3l-10.3-1 3-6-7.7-2.3.5-7.7-6-.3-1-1.5-2 2-2.8.3-1.5 3.2H401l-1 2.8h-1.7l-.8-6.8-2-.7-2-2.3-3.7 1-.3-2.5-2-1.2-.2-2 2-1.5-.3-2.5 1-3-2.7-5-4-1-1.5-3.3-3.8-.5-.5-3.2 2.5-1.3s0-2.5-.2-3.7-2-1.8-2.5-.8-2 1.5-2 1.5l-2.8.5-1.2-3.7V343l-2.3-4 .3-4.2 2-1.6 5.5-.3 4-5.7 3.8 1.7 11.3.3v4.4l-3 2.2 2.6 4 3-.8 2.8 1 5.2-.4s2.8-4 4-4.5l3.2-1.6s8.3-.5 9-.8c1-.4 4.8-3.2 4.8-3.2l2.5 1.4 3.4-.2 2-3.4s-1.4-2.4-1.4-3.3v-3.6l2.5-.5.5-6.7 2.7-.8 1.8 3 12-1.3c1 0 3.6-2.8 3.6-2.8l2 3-.2 7 4 .2.7 2 5-2.5 5-4 10.7 5 2 2 .2 2.8 8 3.7 1 2.5s1.6 1.6 2.7.5c1-1 1.7-2 1.7-3V326l3.6-.6 4.5-1 1.4 2.7 5.3 1.2-2.5 3.6v3l2 3.3 3.3.4-.7 6h-4l-.8 2 2.7.8v1.7l-3.5.7-.5 8.3 1.8 2 2.7-1.5 3 8.3 2 2.2-.8 3.3 2.6.6 1 2.4-1.5.8 3.7 3.3z"/>
  <path class="land"  id="prienai" d="M525 530.5s-2.8 0-3.8.3c-1 .2-1.5 1.2-1.5 1.2h-4v-2.2l2.6-1 3-1-.8-4.3 2.4-2.5 4.3-3.5 5.5 1.8 2 2 6.7.2 2.5 5.5-.7 2.5 1.5 2.5 3.7 1 2.8 3.3-2 2.5 2.7.2v4.5l2.3-3h3.2l.3-2.2 4.7.5 1-2 2.8-.8v-2.2l3.7.2 1.3 1.8 4.2-2.3 4-.2s2-.8 2.3-2l.7-3.8 8 4 2.5 4.5 4.8-2 .5 1.8 1.5.4-3 4-1.8 5.8s-1.2 4-1 5.3 0 2.2 1.8 3 5.7 2 5.7 2l2.5-2.3 2.3-4 6.2 2.8 2.8 1.7v3l3.7.8.5-1.8h4.8l1.7 1.5 1.8-1.7 1.2 2h2.5l.5-3h3l.3 1.7 4 .8s3.2-.3 2.7 2 1 2.7 2 3.2l4.5 2 3.5 3.3 4.5-2 2.3 4.5v2.5l-.5 2.7-2.3-.5-1.2 2 .5 2.8-6.5-.5-.8 14-2 1-1.5 2-3.5.5-6.2-.3-4 .8-3.5-2.3-3-.7-.8-4.8 2.5-2.5-3.7-.7s-3 2-4.5 2.2l-3.8.5-2.5 4.8-4.3-.5v-.5c0-2.5-3-2.8-3-2.8l-1.2-2s1.5-2.2 1.8-3.7-.8-2.8-2.5-3-3.3-.5-4.5-1.5-3-3.5-3-3.5-1-2.5-2.8-2.5-1.7-1.3-2.2-2.8-2-1-3.5-1.2-3.8.7-3.8.7-1.5-4-2.2-5.2-1.5-2.3-4.5-2-1.5 3.7-1.5 3.7l-.8 3.8 3.5 3.5s2 1.2 4 1.2 1.3 2.3 1.3 3.3-1.3.5-3.5 0-1.5 2-1.5 2l-1 2.7-3.5 3s-1.8.8-3.5.8-4 2.7-4 2.7-1.8 1-3 2.3 0 3.2 0 3.2l4.5 2.8s2 2.5 3 3.2l5.5 3.8-1.3 2.5-6.5.2-3.2 1 .2 4.5-7 1.3-.5-3.3-7.7-.2-2 1.5-4-1V609l3-2.5s.2-2 .7-3c.4-1-.3-3.2-1.5-4.7s-3-2.8-3-2.8l-.7-5.2-1.7-1.3-2.6 1.8-3 1-1.7-2-.5-2.8-3-1.2-2.3-4.5 5.2-4.3-3.6-5-4.7-1-2-2.2v-1.5l3-.3 1-1.5 2.3-1.2-2.2-1.5V561l2-2-3.4-8-2-2.2c-1-1-.2-3.5-.2-3.5l4.2-2.5s0-1.5-1.7-3.5c-1.8-2-2-3-2-3s0-1.3.7-2.5c.7-1.3 1.2-3.3 1.2-3.3z"/>
  <path class="land"  id="jurbarkas" d="M502.7 413.4l-2.2 6.6s-1.5 2.8-1.2 4-.3 9.8-.3 9.8l-3.7 4.7-1.5 5-5.5 3.8-.2.5c-.8-.3-1.7-.5-2.3-.5-1.5 0-3.2-.5-4.4.2-1.3.8-3.7.8-6.2 1-2.3.3-8.2-.7-9.7-2s-7.8-.5-9.3-1.2c-1.5-.8-7.6-2.5-10.3-2.5-2.7 0-6-.5-7.6-1.5s-10-2.5-12.2-2.5c-2.2 0-8.5 1.7-12.5 3.7s-10.3 1.5-13.2-.2c-2.8-1.8-4.8-.5-6.5.7-1.7 1.3-3.7 2.5-6.2 2.5-2.4 0-5.4.3-6.8 2s-5.7 2.5-7 2.5c-1 0-3.8.8-5.3 1.5s-5 1-7.8-.2c-2.7-1.3-8.5-5.2-8.5-5.2l-1-.4-.4-.3-.4-.3-1 .2-3.3 1-4 2-5 2.7-4 1.2-2.8-.6-.8-.3-4.2-1.5h-4l-1.2-.3-.8-.2-1-.2-4.7-1.2-2-.2-5.3-.7H305l-.7-3.5-1.3-1.5v-3.2l-1.7-4.5 1.7-1.3-1.2-1.5s-.8-1.7.7-2 1.5-1.2 1.5-1.2l-.7-3 2.7.7 3.5 1-2.2-2.5 3.7-1.5 3.8-.5.7 2 2.3-.7 3-.3 1 3 4.5-.5 3-1.2 1.2 4s4.5-.8 5.5-1.3 12.5-3 12.5-3l4.3 1.8s2 0 2-1 1.2-4.3 1.2-4.3l-1.7-2.2 2.5-.5.5-2-4.3-.5v-2.5s2.8-1 1.3-2.8c-1.5-1.7-1.5-2-2-3.2s.7-3.8.7-3.8-1-.2-1.5-1.5-.5-2.7-.5-2.7l4-2-2-2.5 1.5-1.5-.5-1.3-4-.2-1.5-1.8-1.2-1.7-.5-2.5s-3.3-.8-1.8-2-.2-3.5-.2-3.5 2.2 0 2.5-1 1-2.3 2.5-1.5 6 .2 6 .2h7.5l.7-2.2h-2l.3-2.5-1.5-.3-.5-4.2 2.2-.3 1.3-2.7-1.3-3s10.3-2.3 11.3-3l4.2-3.3 3.8.5 1.5 3.3 4 1 2.7 5-1 3 .3 2.5-2 1.5.2 2 2 1.2.3 2.5 3.7-1 2 2.3 2 .7.8 6.8h1.7l1-2.8h2.5l1.5-3.2 2.8-.3 2-2 1 1.5 6 .3-.5 7.7 7.7 2.3-3 6 10.3 1s.7-2.3 1.7-3 3 0 3 0l1 1.5s3-.3 4.5-1 4-2.3 4-2.3l4.5.3.8 4.5v4.7l4.7-.2s3.3.5 4.8.2 2.7-.2 3.7.8 4.3.2 4.3.2l2.2-2s3.3-.2 4.3-.5 4.7 1 4.7 1l.5 6.5 5-.2 2 2 2.8-1.8s3.2-.5 3.7.5 6 2.5 7 2.8c1 .2 2 1 2.2 1z"/>
  <path class="land"  id="kalvarija" d="M483 636l3 3s-2.3 1.8-4 1.8h-3.7l.5 3.7-3.7 1.8-.4 3.5-1.4 1 .4 2.7s2.3 2.5.3 3-4.3 1-4.3 2.8 1.7 3.2 2.5 4.5c.7 1.2-1.3 3-1.3 3l-1 2.5v4.3l-3.7-.8-6.4-1.7-2.6-1.7-.6-.8-1.3-2.2-.7-1.2-2-3.2-.4-.4-2-1.3H449l-1.8-.8h-.2l-1.6-2-1-2.7-2-.7-.7.3-.8.5-3.4 1.8h-.2l-2.7 1.3-2.5-.2-2.5-2-3.2-2-.3-1 .3-.7.8-1.8.6-3 .3-1.8-1.6-1.4-2-.4-1.3-.3-3-.5-1.6-1.8-.3-2.4.5-2.4-1-2.6.5-2h2.7l.2-2.4h-2.2l-.2-2h-2.2l1.2-2-1.7-2.2.2-4.3h6.2l2.4-1.7 3.5-.3 4 .5 3.4-5-.4-4.5 6.2.3 1.7-2.5 4.2 2.2 6.8 3.5 3 1.8 3.4.2s.6-1.5 1.4-2.5c.7-1 1.4-1.7 2.4-1.2s3 .7 3 .7 2-.7 3-.5c1 .3 2.4.8 2 2 0 1.3-1 3.8-1 3.8l-2.3.7v2.8l4.2 1.2 2 2.5-2.8 1H469l1.5 2.5 3.7.8 2 2.7 6.3 1.8.3 4.7z"/>
  <path class="land"  id="siauliai" d="M493.3 225.5l-5.8 9.7-3.6-.5-2.6 3 2.8 2.7-.8 3.7-1.7 2.8-2.8 1.4-1.2-2.8-4.7-.8-1.8 6.6-4 7.2h-2l-5.6 9-9.6-8-4.2 2.6-.8-2-5-1.3-1 2.2-6.4-1.8 2.5-2-1-1.3h-4.2l.3-5.3 1-2.8h-4.5l-.5-3-2.3-.4v-2.8l-6.3.3-1-4.3-2.3.3-1-4.2 2.2-3.8s-1.7-1.4-2.7-2c-1-.5-3.7 0-3.7 0l-1.3 2.5.2 2.8-1.6.2-2.4-2.2-2.8.3-2.7 2.2V230s-.7-.6-3-1c-2-.7-5-1.2-5-1.2l-1.3-3.6H385l-.4 2.2-3-.3s-1.4-3.7-2-4.6c-.5-.8-1-1.6-2-1.3-.7.3-2.7-.2-2.7-.2l-2.3-2-4.4 1.5 1.5-3.3-1.8-2.5s-.5-2.5 1-2.7 3.5-1.5 3.5-1.5l-3.7-2.5-1.3-3.8-.5-3.2-3.2-2.3.5 2.8s.7 3.5-.5 3.7-7 .5-7 .5-1.5-.5-1-1.7.5-2.8.5-2.8l-3.5-2.7.7-2.5 3.8-2 .7-3.3s0-2 .8-3 1.5-3.2 1.5-3.2l-2.5-1.8.2-2.5 3.5-.2s1-2.5 2.5-2.5 3.5-1 4 0 3.5 2 3.5 2l.8-2.3-.3-2.7 3.8-1 6 .3s3-1 6-2.5c3.2-1.3 6.5 3.2 6.5 3.2l3-1-2.2-5V165l3.6-2.6h2.8l1 2.8h2l-.2-4.5 3.3.3 2.8-1.7v-2.7l4-2s-2-1.6-2-2.4c0-1 2.3-1 2.3-1v-2.3l3.7-1.2-4-4.5 1.4-2s.6 0 2 1c1.4.8 2 0 3.8-1 2-.7 3.3 1.2 3.3 1.2l2-.2.8-3 4.4-1.5 4-.5-1.2 2.2 1.7 2 3.2-3.4 2-1 2.5-1.4 3.3-.8 4.7 1.6s-1.4 2.3-.8 4c.5 1.6 2.7 2.4 2.7 2.4l-.7 2s1 .5 2.2 1.6c1 1 4-1 4-1l1.5-2.3 5 .6 1.6 1.4 1.4-1.4 3 1.7-1 3.3-2.3 3.6-3 .8 7.7 5.8 1-1.4-2.4-2.7 3-.6 3.4.4 2 1.7c.7 1-.7 2.3-.7 2.3l4.5 3.8 3 1.5 2-1.4 3 3c1.6 1.5-.3 3.4-.3 3.4l5.7 2.3 1.4-.6 3.4 3.2 2.2-.3 4.2 3.4 1.3 1 3.4 2-1.7 4-4-1.7-1.7 2.7 1.6 1.4h2.5l2 1.4s1 0 2-.8c1-1 1.6.6 1.4 2-.3 1.3-.3 4.6-.3 4.6l-6 3.6-2.2 1.4 6 6.3s-.5 3.3-.5 4.4c0 1 .3 3 .5 4.2.3 1-3.5 4-3.5 4l-3-1.4-2 6.4-2.2-.8-1.3 2h-2.4l-1.7 3-3.3-.7zm-23.2-.2c-1.8.5-4.6 2-5.4 2.5-1 .5-1.4 2.7-.6 3.5.8 1 3.4 2.7 4.7 3 1.4.4 4 2.3 4 2.3s1-3.6 2-4.4c1.2-1 .4-4.7 2.3-3.6 2 1 2.2 1 2.2-.8 0-1.7.5-4.2 2-2.5 1.3 1.7 2 3 2 3s.4-2.7 2.6-1c2.2 1.6 4 .4 4-1.8s-.7-3.8-1.8-5c-1-1-4.4-3.8-4.4-3.8h-2.8c-2.4 0-3.8-1-2.2-2 1.7-.7 2.2-2 1-2.4-1.5-.2-2.6-1-2.6-1s-1.6-3.7-.8-4.8c.8-1 2.7-4 2.7-4l-2.8 1-1.4-1.7h-3.6l-.8 2s-2.5-.3-3.6 0c-1 .3-2.8.8-1.4 2.5 1.4 1.6-1.2 2.4-.3 4 1 1.8 0 3.7-1 4-1 .2-1.6.8-1.6.8l-3 .3-.6 2.2-1.7 1 4.8 3 .3 3.5 2-.3s0-1.4.8-2.2c1-.8 2.3-2.4 3.4-2.7 1-.3 1.3.5 2.2 1.4.8.8 1.6 3.5-.3 4z"/>
  <path class="city"  id="siauliai_city" d="M464.8 222.5c-.8.8-.8 2.2-.8 2.2l-2 .3-.2-3.6-4.7-3 1.8-1 .6-2 3-.3s.5-.5 1.6-.7c1-.3 2-2.2 1-4-.8-1.6 1.8-2.4.4-4-1.4-1.7.3-2.2 1.4-2.5 1-.3 3.6 0 3.6 0l.8-2h3.6l1.4 1.7 2.7-1-2.8 4c-.8 1 .8 4.7.8 4.7s1 1 2.5 1c1.3.4.8 1.8-1 2.6-1.5.8 0 2 2.3 2h2.8l4.4 3.8c1 1 1.7 2.7 1.7 5 0 2-1.7 3.3-4 1.6-2-1.6-2.6 1-2.6 1s-.5-1.2-2-3c-1.3-1.6-1.8 1-1.8 2.6 0 1.7-.3 2-2.2.8-2-1-1 2.7-2.2 3.6-1 .8-2 4.4-2 4.4s-2.7-2-4-2.2c-1.4-.4-4-2.2-4.8-3-.8-1-.3-3 .6-3.6.8-.6 3.6-2 5.5-2.5 2-.6 1.2-3.3.4-4-1-1-1-1.8-2.2-1.5-1 .3-2.5 2-3.4 2.7z"/>
  <path class="land"  id="akmene" d="M366 93l2 1.2 2-.6 3-2.3.4-.2 2-1.3.7-.5h.4l5.4 1.7h5.7l5.7-.5 6.6-1.2 5-1.3 1.7-1.7 1-3.3v-1l.4-2 1.8-1.7h2.3l2.6 1.5 2.5 1 2.3.7 1.8 2.7v7l2.5 10 1.6 2 6.4.6 3 3.5 1.6.2-.4 4.7 1 4.7c0 1.5 1 3.7 1 3.7s-2 .8-3.3.8c-1.4 0-1 1.2-1 2.3v2.7l3 2.5 2.3-1.4 1 2.8-.7 2.2 2.5 3.8.3.5-2 1-3.3 3.4-1.7-2 1-2-3.8.4-4.4 1.4-.8 3-2 .3s-1.3-2-3.3-1c-2 .8-2.4 1.6-3.8.8-1.4-1-2-1-2-1l-1.3 2 4 4.5-3.8 1v2.3s-2.4.3-2.4 1.2c0 .8 2.2 2.5 2.2 2.5s-4 1-4 2v2.6l-3 1.7-3.2-.3.3 4.5h-2l-1-2.8h-3l-3.4 2.5v2.3l2.3 5-3 1s-3.3-4.6-6.4-3.2c-3.2 1.5-6.2 2.6-6.2 2.6l-6-.3.2-2.3-2.7-1.7-.5-5 1-1.8s-.3-1.5-2-1.7-3.5 0-3.5 0l-1.8 1-5 1s-1.5 3.2-2.5 3.7-3.7 1.3-3.7 1.3h-3.5v-3.3-3.7c0-1.3.7-4-1.3-5.5s-4.7-4-4.7-4l-1.5-2.3 1.5-2.5 4.7-1 6.3-.7.2-5 1-3-1.5-3 .8-2.8 3.2-1v-2.2l-.5-3.5-4.5-1.3s-2-.7-2-2-.5-3-.5-3l-2.2-3.7 2.7-2.3-3.7-2.7s2.2-3 2.7-4 1.3-4.8 0-5.3-2-.5-2-.5.3-2.2-1-3.5-.7-3.2.8-3l5 1 4.2-2.7h.4l.3 1.3 5.6 1v.3z"/>
  <path class="land"  id="taurage" d="M380 352l-2.5 1.3.5 3.2-4.2 3.3-11.3 3 1.3 3-1.3 2.7-2.2.3.5 4.2 1.5.3-.3 2.5h2l-.7 2.2h-7.5s-4.5.5-6-.2-2.3.5-2.5 1.5-2.5 1-2.5 1 1.7 2.2.2 3.5 1.8 2 1.8 2l.5 2.5 1.2 1.7s.5 1.8 1.5 1.8l4 .2.5 1.3-1.5 1.5 2 2.5-4 2s0 1.5.5 2.7 1.5 1.5 1.5 1.5-1.2 2.5-.7 3.8.5 1.5 2 3.2c1.5 1.8-1.3 2.8-1.3 2.8v2.5l4.3.5-.5 2-2.5.5 1.7 2.2s-1.2 3.3-1.2 4.3-.8 1.5-2 1l-4.3-1.8s-11.5 2.5-12.5 3-5.5 1.3-5.5 1.3l-1.2-4-3 1.2-4.5.5-1-3s-2 0-3 .3l-2.3.7-.7-2-3.8.5-3.7 1.5-1.3-1.5-5-.5-2.2 1.5-.5-2.2h-7.5l-4-5.3-2.8-.5-.5 2.8H278s-1.7 2.2-3.7 2.7l-5 1.3-2.8-.3 3-4.2-3-4.3s-1.7-5.2-1.7-6.5-1-3.2-1-3.2-1.3-1.5 0-2.3.5-2.7-.8-4-2.2-1.2-3.7-1.5l-4.3-.7-1-2.3s-1.7-.5-2.7-1-2.8-1.7-2.8-1.7l-4.2.2-1.5-1.7-4-.3 2-5 2-.2s1.2-4 2.2-5.3 3.3-2.7 3.3-2.7 2.5-1.5 2.5-3.3 1.2-2.2 2.2-2.5 2.8-1.5 2.8-1.5 3.3-5.4 3.5-6.2c.2-.8.7-2.8 1.7-3 .6-.2 1-1.2 1-2l3.3-.8 2.2-1.2.3 2.5-1.5 1.7 3.5.3s-.3 1.5.2 2.5 1 1 1.8-.3 3-1 3.2.5 1 3.3 1 3.3l2-.5 1.3-1.3h3.2l.3-2.7 1.7-1.5 2.5 3 8.3-6.8 3.2 1.5 2 2.3 3-1.3 7-6-2-2.2.5-2.3-3.5-1.2-2.2-2-.3-2.5 4.8.2s-2.5-1.7-1.8-3.2.5-3 2-1.5 2.3 2 3.3 1.7 1.7-1 1.7-1l5.8 5-1.3 1.5 3.8 3s.7-1.2 2-1.5 2.2-1.2 2.5.8 2.2 3 2.5 1 2.5-2.3 2.5-2.3l1.2-1.5s1.5-.7 2.5.5 4.5.3 4.5.3 2.8-1.8 4.5-2 7.8-3.8 7.8-3.8l1.7 2.5 3.3 1 .5-2.5 4-2.2-1.3-2.3 1.5-2.2 2.8-.5 5.5 1.5-.3 4.2 2.3 4v2.8l1.2 3.7 2.8-.5s1.5-.5 2-1.5 2.2-.5 2.5.8.2 3.7.2 3.7z"/>
  <path class="land"  id="vilkaviskis" d="M377.5 552h-.2v-.8l.2-.2-.2-1-1.8-.5-.5-.6v-1.2l.2-.6.3-1.6v-.8l.2-.3 1-3.5.3-.5.4-.7 1-1.4 1.3-.7 1.5-.7.7-.8 1-2.4 2.3-.4h.3l2.4-.6 1-1.2.8-1 1.6-1.2h.2l1.8-.5.2-.2.4-.6 1.7 1v2.3h2.7l1.7-3.2s1-2.5 2.3-2.5c1.2 0 6.4 1.5 6.4 1.5s2.4-2.8 4.4-2.8 7.2-.7 7.2-.7l1.5 3.2-.3 4.3s3.7-.5 4.7.2l6.7 5 1.2-1.2h3.6l.3 2 5.3 1 .4 3 6.4-.3 2-1.5 2.8-1 3.2-.5 3.6-3.2 2.5-.5.3 6v4.2l-1 3 3.7 1.8 7.6 2v4.7c0 1-1 2-1 2l-3.4.3-2.4 6.7c-1.3 3.3-1.5 9-1.5 9l-4 5-.4 3.5-1.8 2-4.4-3.7-6.4 2-.8 5.2c-.2 1.5.8 1.8 2.3 2.3s1 3 1 3l-2 4.2-.4 2.8h-4l-2 5-1.8 2.5-6.2-.3.3 4.5-3.5 5-4-.5-3.4.3-2.3 1.7h-6.2l-.2 4.3 1.7 2.2-1.2 2h2.2l.2 2h2.2l-.2 2.3-2.7.2-.6 2-1.5-1-.6-.5-2-.4-1.2 1-1.3.8-1.2-.4-1-.7-1.4-1.4-1.3-1-1 .3-.8.3-1.2-.5-.5-.6-.8-1-1.6-3-1-1.7-1.4-.8-1.7-.5H395l-2.7 1.3-3.3 2.2-3 2.8v.7l1 1 1 .4 1 .2.3 1.5-.3 1.2-.3.3-1 1-.8 1-1.6 1.6-.2.2-2.3-1-1.4-.8-.8-3.4-.8-3.3-3-9.6-2-4-3.8-3-.5-1.4-1.2-9.2-.2-1.3-.3-3.7-.3-5.5 2.3-5.3.3-.7v-3l-1-2.3v-.2l-1.4-1.5-1-1 1-2 1-2 2.5-1.3.6-.3h.4v-.2l.2-2 .5-.8 1-1.5.4-.4 2-1.3.4-.3.5-1.3.2-.4v-.4l.3-1v-.7l.2-1.2v-.4l-.5-1.6-2-3v-1l.7-1 1-1.7h-.8z"/>
  <path class="land"  id="kelme" d="M369.3 334.8l-5.5-1.5-2.8.5-1-2.8 3.5-3s1.3-2 0-3l-6-4.7-5-6.8 1.8-2.2v-2.5l-3-1.5-3.5 1.7-4-5.7-3.3-.8v-4s1-2.7 1-3.7-1-3.5-1-3.5l-3.7-.5-.8-6.5-2.2-6.5c.2-.6.5-1 .7-1.3 1.3-1.2 3-2.5 4.3-2.2s3.7.2 3.7.2l.8-2.7s1.5-1.5.5-3-2-4-2-4-1.3-2.8-.3-3.8 1-3.5 1-3.5l-2-1.7-.5-3-3.5-3.8s2.3-2 4.5-2.2 11.8-4.5 11.8-4.5l-1-9.8-2-1.7s-.8-1.3.2-1.8l2.3-1 9.5.8 1-3 2.7-.8-1.2-7.2 1.7-.5 2.3 2 4.4-1.5 2.2 2s2 .5 2.7.3c.8-.2 1.4.6 2 1.4.5 1 1.8 4.7 1.8 4.7l3 .4.6-2.2h3.7l1.4 3.6 5 1c2.3.6 3 1.2 3 1.2v3.8l2.8-2.2 2.8-.3 2.5 2.2 1.7-.2-.2-2.8 1.3-2.4s2.6-.5 3.7 0c1 .6 2.7 2 2.7 2l-2.2 3.8 1 4.2 2.3-.3 1 4.4 6.4-.2v2.8l2.3.3.5 3h4.4l-1 2.7-.2 5.2h4.2l1 1.3-2.4 2 6.3 1.6 1-2.3 5 1.4.8 2 4.2-2.5 9.6 8-2.8 6.6v1.8l2.6.3v2.2l3 1s5 1.2 6.6 1.2c1.6 0 1 2.6 1 2.6l1.5 1.6-1 2 2.6 3 .4 3.3 3.3-1-.8 2.8 1.8 2-.5 3.5h-2.5l-.8 1.7 1.4 2.2-1.4 2.5.5 5.2h2.5l2.2 1 .3 2.8-3.3-.6-2.8 2.2-5 4-5 2.4-.5-2-4.2-.3.3-6.8-2-3s-2.6 2.7-3.5 2.7l-12 1.4-1.8-3-2.7.7-.5 6.7-2.5.5v3.6c0 1 1.4 3.3 1.4 3.3l-2 3.4-3.3.2-2.4-1.4s-4 2.8-4.7 3c-1 .4-9.2 1-9.2 1l-3.3 1.5c-1 .6-4 4.5-4 4.5l-5 .5-3-1-3 .8-2.4-4 3-2.3v-4.4l-11.4-.3-4-1.7-3.8 5.6-5.4.2-2 1.6z"/>
  <path class="land"  id="telsiai" d="M279 155l1.5-2.7s1.8 1.5.8 3.5l-2.8 5.2 2.5 2.8 2.3.2s1 .3 1.2-1l.3-2.5 7.5 1 4.5.3-.3-4.3 1.5-2.5-1.2-1.5s1.5-1.2 1.5-2.2-.8-1.8.7-1.8 3-.2 3-.2l.3-2s2.2-.3 3.2.5 4-.8 4-.8l.3 3.3h2.2v-2.8s.3-1.2 1.3-1.2 2 .2 2 .2l2.2 2h2.8s2.5 0 2.5 1.3 0 1.5 1.7 1.7 2.5-.7 3.3.5.7 3.3-.3 4-1.7 1-2 2 .5 2.5 2 1 2.5-2.7 2.8-.7-1.3 2.5-1.3 2.5l-2.2 2 4 .2s2 .3 2.7 1.3 2.8 1 2.8 1l2.7 1.2s1.3-1.2 1.3-2.2l.2-2.5s3.8-.3 5 .5 5.8 1.2 5.8 1.2h.5v3.3h3.5s2.7-.8 3.7-1.3 2.5-3.7 2.5-3.7l5-1 1.8-1s1.7-.3 3.5 0 2 1.7 2 1.7l-1 1.8.5 5 2.7 1.7-.2 2.3-3.8 1 .3 2.7-.8 2.3s-3-1-3.5-2-2.5 0-4 0-2.5 2.5-2.5 2.5l-3.5.2-.2 2.5 2.5 1.8s-.8 2.2-1.5 3.2-.8 3-.8 3l-.7 3.3-3.8 2-.7 2.5 3.5 2.7s0 1.5-.5 2.8 1 1.7 1 1.7 5.7-.2 7-.5.5-3.7.5-3.7l-.5-2.8 3.2 2.3s0 2 .5 3.2l1.3 3.8 3.7 2.5s-2 1.2-3.5 1.5-1 2.7-1 2.7l1.8 2.5-1.5 3.3-2.3-2-1.7.5 1.2 7.2-2.7.8-1 3-9.5-.8-2.3 1-.2 1.8 2 1.7 1 9.8s-9.5 4.2-11.8 4.5-4.5 2.2-4.5 2.2l3.5 3.8.5 3 2 1.7s0 2.5-1 3.5.3 3.8.3 3.8 1 2.5 2 4 0 1.5-.5 3l-.8 2.7s-2.5 0-3.7-.2-3 1-4.3 2.2l-.8 1.2c-1.2 2-2.4 5-2.4 5l-8.3-2-3.2 1.8s-2.3.5-3.5.3-2.5-2.8-2.5-2.8l-3.5-.7-2.3.7s-1.7 1.8-2.7.8-5-4.3-5-4.3l-2.8 1.3-1.7-2.5.7-3 1.8-4.3s1-4 .5-5-1-1.7-2.8-3.2.8-5.3.8-5.3l-2-1.7 1.2-1.3.8-2.2s-3-.3-4.3-1-2-1-3.2-2-2-2.5-2-2.5l-3.8.7.8-2.5-2.3-.7 2.3-2V237l-2.8-2.2-2.5.7-1.7-2 2.7-2s-.7-.5-1.7-1.7.2-2.8 1.7-3.8 1.8 1.5 1.8 1.5 1 .5 2 .8 2.2-.8 2.2-.8l-1.2-1-.5-4.7.7-1.8s-1.7-.5-2.7-.5-2.5-1-2.5-1l-.3-3.5-1.7-2.7s.7-3.8 0-4.8-2.5.3-2.5.3l-.5-3.8-3.3 2.8-1.2-1.5s1-1.3 1.5-2.3-.3-3-1.5-3.5-2.3-1-1.8-2 1.8-1.7.8-2.7-1-2.8-1-2.8l2.5-.2v-2h2.7v-5h1.8l.5-3.5-2 .2-3.5-.7-.8-4s1-.3 2-1-.7-2-.7-2L269 172l1-2.5-.7-4.5 3.5-.2 2-3 1-2.5.2-2.5 1.3-2.5 1.7.7z"/>
  <path class="land"  id="silale" d="M333.8 277.8l2.2 6.5.8 6.5 3.7.5s1 2.5 1 3.5-1 3.7-1 3.7v4l3.3.8 4 5.7 3.5-1.7 3 1.5v2.5l-1.8 2.2 5 6.8 6 4.7v3l-3.5 3 1 2.8-1.5 2.2 1.3 2.3-4 2.2-.5 2.5-3.3-1-1.7-2.5s-6 3.5-7.8 3.8-4.5 2-4.5 2-3.5 1-4.5-.3-2.5-.5-2.5-.5l-1.2 1.5s-2.3.3-2.5 2.3-2.3 1-2.5-1-1.3-1-2.5-.8-2 1.5-2 1.5l-3.8-3 1.3-1.5-5.8-5s-.7.8-1.7 1-1.8-.2-3.3-1.7-1.2 0-2 1.5 1.8 3.2 1.8 3.2l-4.8-.2.3 2.5 2.2 2 3.5 1.2-.5 2.3 2 2.2-7 6-3 1.3-2-2.3-3.2-1.5-8.3 6.8-2.5-3-1.7 1.5-.3 2.7h-3.2l-1.3 1.3-2 .5s-.7-1.8-1-3.3-2.5-1.7-3.2-.5-1.3 1.3-1.8.3-.2-2.5-.2-2.5l-3.5-.3 1.5-1.7-.3-2.5-2.2 1.2-3.3.8V356l-1.2-.7s1-3 0-3-2-1.3-2-1.3l-.3-2.7h-4.7s-2.3.2-3-.8-5-2-5-2-2 .8-3 .8-5.3 1.7-5.3 1.7l-2.2-14.7-1.5-4.8-2.8-1-1.5-4 1-4.2v-3.8l-2.7-1.2.8-1.6 1.4-2.2c1-1 3-2.2 3-2.2l4.8-1-1-3.8 1.2-2.5 6.8-1.2s1.7-1.5 3.2-1.5 2.8-.3 2.8-.3 1-1.5 2.5-1.5l4 .3 1 1.5 4.2.2s1.3-.7 1.8-1.7.5-3.5.5-3.5l3.5-2 .5-5.3 3-1.7 6.5 2.7s0-3.5 2-3.7 3-1 3-1 1-2 2.5-2 3.7-.5 3.7-.5 2.5 1.2 3.5.5 2.8-1.8 4.5-2.5l2.8-1.3s4 3.3 5 4.3 2.7-.8 2.7-.8.3-1.2 2.3-.7l3.5.7s1.2 2.5 2.5 2.8 3.5-.3 3.5-.3l3.2-1.7 8.3 2s1.2-3.2 2.4-5z"/>
  <path class="land"  id="mazeikiai" d="M251 147.8c-1.5-.8-2.7 0-2.7 0v-3l2.2-1.5 1.8-5.5 6.7.2 1.5-4.2-3.5-5.5-1.7-6-1.8-5.3.8-12-6.8-.2.5-9h6l-.8-7.8 1.2-1 1.4-2.2v-.4l1-2.5.8-1v-3l8.5-.6 6.3-1.4 3.8-1h4.8l5 1.4 4.5.6 1.2.7 1 .5 1.5.8 1 .5 2 1.2h.4l2 .2 1-.4 3.4-1.2h4.5l.5-.2 3 2.5 1 2 1.5-.7 1.5-.8 1-.4h.4l5.2-1.7h4.8l4.2.8h.3l2.3-.3h.3l3.7 2.2 4.6 1.6h4.8l.5.2h3.5L355 87h.5l3.8 1.4h.2v.2l.4 1.6h-.5l-4.2 2.8-5-1s-2 1.8-.8 3 1 3.5 1 3.5.8 0 2 .5.5 4.3 0 5.3-2.7 4-2.7 4l3.7 2.7-2.7 2.3 2.2 3.7s.5 1.8.5 3 1 1.8 2 2l4.5 1.3.5 3.5v2.2l-3.2 1-.8 2.8 1.5 3-1 3-.2 5-6.3.7-4.7 1-1.5 2.5 1.5 2.3s2.7 2.5 4.7 4 1.3 4.2 1.3 5.5v3.7h-.5s-4.5-.5-5.8-1.2-5-.5-5-.5l-.2 2.5-1.3 2.2-2.7-1.2s-2 0-2.8-1-1.5-1.3-2.7-1.3l-4-.2 2.2-2s1.5-.5 1.3-2.5-1.3-.8-2.8.7-2.2 0-2-1 1-1.2 2-2 1-2.7.3-4-1.5-.2-3.3-.5-1.7-.5-1.7-1.7-2.5-1.3-2.5-1.3h-2.8l-2.2-2-2-.2-1.3 1.2v2.8h-2.2l-.3-3.3s-3 1.5-4 .8-3.2-.5-3.2-.5l-.3 2-3 .2c-1.5 0-.7.8-.7 1.8s-1.5 2.2-1.5 2.2l1.2 1.5-1.5 2.5.3 4.3-4.5-.3-7.5-1s0 1.3-.3 2.5-1.2 1-1.2 1l-2.3-.2-2.5-2.8 2.8-5.2-.8-3.5-1.5 2.7-1.7-.7-1.3 2.5-.2 2.5-1 2.5-2 3-3.5.2 3.5-5-2.3-1.2-2.2.2-1.8-1-2.7-1-1-1.5 1.2-1.5-1.5-2-.5-3.2-2-.3v2.5l-5-.2-.5-1.8s-2-.5-3.5-1.2z"/>
  <path class="land"  id="plunge" d="M251 147.8c1.5.7 3.5 1.2 3.5 1.2l.5 1.8 5 .2v-2.5l2 .3.5 3.2 1.5 2-1.2 1.5 1 1.5 2.7 1 1.8 1 2.2-.2 2.3 1.2-3.5 5 .7 4.5-1 2.5 1.8 1.8s1.7 1.2.7 2-2 1-2 1l.8 4s2 1 3.5.7 2-.2 2-.2l-.5 3.5h-1.8v5h-2.7v2l-2.5.2s0 1.8 1 2.8-.3 1.7-.8 2.7.5 1.5 1.8 2 2 2.5 1.5 3.5-1.5 2.3-1.5 2.3l1.2 1.5 3.3-2.8.5 3.8s1.7-1.3 2.5-.3 0 4.8 0 4.8l1.7 2.7.3 3.5s1.5 1 2.5 1 2.7.5 2.7.5l-.7 1.8.5 4.7 1.2 1s-1.2 1-2.2.8-2-.8-2-.8-.3-2.5-1.8-1.5-2.7 2.5-1.7 3.8 1.7 1.7 1.7 1.7l-2.7 2h-2s-1 .5-2 1.5-1.3 2.8-1.3 2.8l-3 2.2-1.7-1-2.3.5s-1.7-1-3-1.2-2.5-1-2.5-1l1.5-1.3v-2h-4.5l1-2.2-2.5.5-2 2v1.7l-1 2-2.2.3-1 2-2.5-1.3-1.8 1-1.5 1.3-.7 4.2-1.5 1.5 1 2-2.5-.2-3-.3-.8 2.3-5.7-1.5s-2-.5-2.8-1.8-2.2.3-2.5 1.3-1.7 4.2-1.7 4.2v2.8l-3.8.2-1.7-1.7-1.5 1 1.2 2.5-2.5 1h-3l-3.5-1-4.5-1.8-.5 2.3-4.5.2-1-3.2.8-2.3-1-3.2-2.8-2.3-.5-4-2.7 1.3-3-.3-1.8 1.5-7.2-2.5 2.2-6.2.8-3.8 2.2-.2 2.3-4.5 4.2.7s0-2.7.3-3.7.7-1.5 2-1.5 3.2-.8 3.2-.8v-3.2s-3.5-3.5-5.2-3.8-2.3-2.5-.8-2.7 1.3-2.5 1.3-2.5v-3.5l-1.8-1.5 3.3-7.8-5.8-1.5 3.3-5.2h6s3-2.3 3.5-3.3l3.2-7 3-1.7 3-8.8h3.5l3.5-8.5s3-.5 4.3-.5 4 1.3 4 1.3l5.2 1.5-.7-4.5 1-4.3 3.7 1.3 8 1.2.7 2.6s2.6-1.7 3-3l.8-3 1.8-7.2s1.2-.8 2.7 0z"/>
  <path class="land"  id="skuodas" d="M181 112l1-.2.6-.2 2.2-1v-.2l2-2 7.3-5 7 1.2 1.8.3 4 1.3h2l4.6-1 2.2-1.7 2-2 4-2.2 4-1.7 3-3.6.7-.4 1-.7 1.5-.6 2.8-1.7 4.6 2.2 3-.4 5.2-1.6 2.6-2 .8-.6 2.4-.4.8 7.8h-6l-.5 9 6.8.2-.8 12 1.8 5.3 1.7 6 3.5 5.5-1.5 4.2-6.7-.2-1.8 5.5-2.2 1.5v3l-1.8 7.2s-.2 1.8-.7 3-3 3-3 3l-.8-2.5-8-1.2-3.7-1.3-1 4.3.7 4.5-5.2-1.5s-2.8-1.3-4-1.3-4.3.5-4.3.5L213 171h-6.7l-4.3-2h-3.2l-2.3-2.7.3-3.3-6.5-2-1.5 1-3.3-1-3.7 1.5-4.8-1.7-2.2-1.5-3.3-1.3.8-2.7-9-2-3 1.7-2.3-2.5-9.5-2.7-2.7 6-6-2.5-5.4 1.7-1-3v-1.4l.3-1.2.3-1 1-.8 3.3-.7.2-.2 2-1.4 9.2-12.2 4-3.6 4.3-.8 2.7-1.2 2.6-1.3 2.3-1 4.6-2.6.8-1.5.6-2.4 1.2-3 1.4-2.8 1-.6 2-.7 2 .2h2z"/>
  <path class="land"  id="pagegiai" d="M240.8 384l-2 5 4 .3 1.5 1.7 4.2-.2 2.8 1.7 2.7 1 1 2.3 4.3.7s2.5.3 3.7 1.5 2 3.3.8 4 0 2.3 0 2.3 1 2 1 3.2 1.7 6.5 1.7 6.5l3 4.3-3 4.2 2.8.3 5-1.3 3.7-2.7h5.5l.5-2.8 2.8.5 4 5.3h7.5l.5 2.2 2.2-1.5 5 .5 1.3 1.5 2.2 2.5-3.5-1-2.7-.7.7 3s0 1-1.5 1.2-.7 2-.7 2l1.2 1.5-1.7 1.3 1.7 4.5v3.2l1.3 1.5.7 3.4h-3.2l-5 .6-1.8.3h-.7l-5 1.4-1 .5-4.5.3-3.4 1-1.6 3.8-1.8 2.6-2 .7-6-.2-.3-.2-1-.7-2.4-1.5-2-3.7.3-3.4 1-4.7-1.4-1.8-3.6-.5H258l-5.2 2.8-3 .3-2-.8h-.6l-1.3-.5-2.6-.8-.4-.2h-.3l-2.4-1.5-2.2-1.2-4.5-1.3-2.5-3.2-2-2.6h-6.2l-5.6-2-.8-.8-1-1-1.3-1-.2-.2-1.7-3.2-3.8-3.8-1.5-1-1.6-1-1-.7-2.2-2.3s1-3 1-4 .2-2 1.5-2h3.2l.3-3.4 5.7-.2.5-3.5 6.5-.5h3.8l4.2 2.2.3 2.5 7 1.5 2.5-9.5s-1.8-.2-2.3-1.2-.7-3.8-.7-3.8-1.3-1.5-1.5-2.5-.8-2.2.5-3 1.5-.7 1.7-1.7.5-2.3 1.8-2.3h3z"/>
  <path class="land"  id="rietavas" d="M219 256l3.8-.2V253s1.5-3.2 1.7-4.2 1.8-2.5 2.5-1.3 1.8 1.5 2.8 1.8l5.7 1.5.8-2.3 3 .3 2.5.2-1-2 1.5-1.5.7-4.2 1.5-1.3 1.8-1 2.5 1.3 1-2 2.2-.3 1-2v-1.7l2-2 2.5-.5-1 2.2h4.5v2l-1.5 1.3s1.3.7 2.5 1 3 1.2 3 1.2 1.3-1 2.3-.5l1.7 1 3-2.2s.3-1.8 1.3-2.8 2-1.5 2-1.5h2l1.7 2 2.5-.7 2.8 2.2v2.3l-2.3 2 2.3.7-.8 2.5 3.8-.7s.7 1.5 2 2.5 2 1.2 3.2 2 4.3 1 4.3 1l-.8 2.2-1.2 1.3 2 1.7s-2.5 3.8-.8 5.3 2.3 2.2 2.8 3.2.2 3.3-.5 5l-1.8 4.3-.7 3 1.7 2.5c-1.7.7-3.5 1.7-4.5 2.5s-3.5-.5-3.5-.5-2.2.5-3.7.5-2.5 2-2.5 2-1 .7-3 1-2 3.7-2 3.7l-6.5-2.7-3 1.7-.5 5.3-3.5 2s0 2.5-.5 3.5-1.8 1.7-1.8 1.7l-4.2-.2-1-1.5s-2.5-.3-4-.3-2.5 1.5-2.5 1.5-1.3.3-2.8.3-3.2 1.5-3.2 1.5L238 301l-5.5-5-1.5-1h-3.7l-1-4.7-2.8-1.8 1-2.2-1-2.5s-.5-2.8.5-4 1.3-3.5 1.3-3.5l-3.5-3.5-3.5-2.8s-.5-1.7.2-2.7 1-1.8 1-1.8l-1-3s1.3-1.5.5-2.7-2-2-2-2l-1.2-2.5 1.5-1 1.7 1.7z"/>
  <path class="land"  id="klaipeda" d="M122.8 225.5s1.2 1.8 3 2l3 .3s0 1 1.5 1.2 2.2.8 1.2 2.3-1.2 3-1.2 3l1.5 1.5v3h3.7s2.8-2 4.8-2.8 3-2 3.7 0-.7 3 2.8 3.8 5 1.5 5 1.5l1.7 2 1.5.2.5-2 6.8 2 1.7-3.7 3.8 1.2-1 2.8 4 2.7v2.5l5.5.5.5-2.2 2.5-3.8 7.2 2.5 1.8-1.5 3 .3 2.7-1.3.5 4 2.8 2.3 1 3.2-.8 2.3 1 3.2 4.5-.2.5-2.3 4.5 1.8 3.5 1h3l2.5-1s1.3.7 2 2-.5 2.7-.5 2.7l1 3s-.2.8-1 1.8-.2 2.7-.2 2.7l3.5 2.8 3.5 3.5s-.3 2.2-1.3 3.5-.5 4-.5 4l1 2.5-1 2.2 2.8 1.8 1 4.7h3.7l1.5 1 5.5 5-1.2 2.5 1 3.7-4.8 1s-2 1.3-3 2.3l-1.4 2.2-.3-.2-2-1.2s-.5-1-2-2.3-1.5.8-2.3 2-1.5 3.3-1.5 4.3 0 1.7-2.2 2.2-1.3 1-1 2-.3 1.5-1.5 1.5l-3-.2-1.8 3-3-.5v-2l-2-.8-.2-2-2.5-2.7-1.8-2.3s-1.5 0-3-.2-1.2-2.5-1.2-2.5l-3-1.5-3.5-.8s0 2.5-.3 3.8-2 1.5-2 1.5l.5 2.7s-2.7.3-4.2.3-1.8.5-2 1.5 0 2.5 0 2.5l-3.3-1-3.7 2.7 1-4.2s-1 0-2.3-1-1.7-1-1.7-1l-2.8 2.5-1.7-1.8 3.7-3.2-2.2-.5-1.5-1.8-2.3 1.3-2 2.5s-2-1.3-4-1.3-.7 3.3-.7 3.3L158 319v3l-3.2.5-2.3.3v2.2l-1.2 1.5 3.2 2.3-.2 4.7-4.5-3.5-2 .3-1.8 1.7s-2 .8-3 1-5.8 3.2-5.8 3.2l-.5-3.6-.8-3.3-.6-1.7-1-1.2.2-1-.3-2-1.8-.6-1-.3-.5-1-.5-1 .2-1V318l-.4-1.6.3-1.6-.7-4-1.4-2.2-2-3.2-.8-2-1.7-6.4 3-1.7-3-7.3 2.8-.5 5.7-.5 1.3-1-3.5-8.2-3.8-8.3-.2-4.2-2.3-2-.2-4.5-2.8-3.8-4.2-1.5 1.5-3.5-1.5-2.2-2.3 2.2-3 2.5-2-1.5h-1.7l-.6-3.6v-5.8l-1-4.7v-6.5h2.8l1.3-2.2v-5l2-2.8 2 .3.2 2.7 2.8.8.7 2.2s2-1 2.8 0 1.5 1.3 1.5 1.3l.5-2.3z"/>
  <path class="land"  id="silute" d="M127 370.8l4.2-7.5 2.5-6.3.3-1.2 1.5-1 .7-2.3.6-1.8.2-.5v-3l.6-2.5-.4-1.8 1.2-4-1.2-2.8s4.8-3 5.8-3.2 3-1 3-1l1.8-1.7 2-.3 4.5 3.5.2-4.7-3.2-2.3 1.2-1.5v-2.2l2.3-.3 3.2-.5v-3l1.3-1.7s-1.3-3.3.7-3.3 4 1.3 4 1.3l2-2.5 2.3-1.3s.5 1.5 1.5 1.8l2.2.5-3.7 3.2 1.7 1.8 2.8-2.5s.5 0 1.7 1 2.3 1 2.3 1l-1 4.2 3.7-2.7 3.3 1s-.3-1.5 0-2.5.5-1.5 2-1.5l4.2-.3-.5-2.7s1.8-.3 2-1.5.3-3.8.3-3.8l3.5.8 3 1.5s-.3 2.2 1.2 2.5 3 .2 3 .2.3.8 1.8 2.3 2.5 2.7 2.5 2.7l.2 2 2 .8v2l3 .5 1.8-3 3 .2s1.7-.5 1.5-1.5-1.3-1.5 1-2 2.2-1.2 2.2-2.2.8-3 1.5-4.3.8-3.2 2.3-2 2 2.3 2 2.3l2 1.2.3.2-.8 1.6 2.7 1.2v3.8l-1 4.2 1.5 4 2.8 1 1.5 4.8 2.2 14.7s4.3-1.7 5.3-1.7 3-.8 3-.8 4.2 1 5 2 3 .8 3 .8h4.7l.3 2.7s1 1.3 2 1.3 0 3 0 3l1.2.7v1.3c0 .8-.4 1.8-1 2-1 .2-1.5 2.2-1.7 3-.2.8-3.5 6.2-3.5 6.2s-1.8 1.3-2.8 1.5-2.2.8-2.2 2.5-2.5 3.3-2.5 3.3-2.3 1.5-3.3 2.7-2.2 5.3-2.2 5.3h-2c-1 .2-2.4.2-3 .2-1.3 0-1.5 1.3-1.8 2.3s-.5 1-1.7 1.7-.8 2-.5 3 1.5 2.5 1.5 2.5.2 2.8.7 3.8 2.3 1.2 2.3 1.2l-2.5 9.5-7-1.5-.3-2.5-4.2-2.2h-3.8l-6.5.5-.5 3.5-5.7.2-.3 3.3h-3.2s-1.5 1.2-1.5 2.2c0 1-1 4-1 4l-4.2-1.7-3.8-.2-2.3-1.2-2.2-1.5-2.2-.4-1-.2-1 .4-.5.2-1 .3-.7.3-1.7 1.4-.4.5-2-1-1-.5-3.2-4.2-1.3-.7-2-1-2.6-4-2-6-.8-1.6-.3-.6-1.6-3-.8-1.5-3.8-3.6h-.4l-1.8.6-2.2.7-1 .3-5 3.4-2.8 2.7-.3.2-.4.4-.6.5-3.3 3.3-.3.2-.3-.3-1-.7-.2-.2 2-2.7.2-1-.8-1.5-.3-1.6v-1.4l1-.3-.2-.7.8-.5.8.5.4.2.6-1.3h.4l1.6-1.3 1.5.3v-1l1-.8-4 1.3.4-1.6-1.4-2.5.2-1.3-.8-1.5 2-1.6H143l-.5-.4-.3-.8-4-2.2.3-1.4.2-1.2-1-2 .3-.7h.8l1.3-.7-1-2-1.4-.6-.8.2h-.4l-1 .5-.7 2.2-1.4 1-1.3.4-2 1-1.8 1.2-1 .3-.4-.2z"/>
  <path class="land"  id="kretinga" d="M123.7 169.8l4.2 1 2.4-1.7 1-1 3.6-8.4.3-.6.2-1-1-3 5.3-1.7 6 2.5 2.7-6 9.5 2.7 2.3 2.5 3-1.7 9 2-.8 2.7 3.3 1.3 2.2 1.5 4.8 1.7 3.7-1.5 3.3 1 1.5-1 6.5 2-.3 3.3 2.3 2.7h3.2l4.3 2h3.2l-3 8.8-3 1.7-3.2 7-3.5 3.3h-6l-3.3 5.2 5.8 1.5-3.3 7.8 1.8 1.5v3.5s.2 2.2-1.3 2.5-1 2.5.8 2.7 5.2 3.8 5.2 3.8v3.2s-2 .8-3.2.8-1.8.5-2 1.5-.3 3.7-.3 3.7l-4.2-.7-2.3 4.5-2.2.2-.8 3.8-2.2 6.2-2.5 3.8-.5 2.2-5.5-.5v-2.5l-4-2.7 1-2.8-3.8-1.2-1.7 3.7-6.8-2-.5 2-1.5-.2-1.7-2s-1.5-.8-5-1.5-2-1.8-2.8-3.8-1.7-.7-3.7 0-4.8 2.8-4.8 2.8h-3.7v-3l-1.5-1.5s.2-1.5 1.2-3 .3-2-1.2-2.3-1.5-1.2-1.5-1.2-1.3 0-3-.3-3-2-3-2l-.5 2.3s-.8-.3-1.5-1.3-2.8 0-2.8 0l-.7-2.2-2.8-.8-.2-2.7-2-.3.2-4.7s1.5-4.5 2.5-5.3 1.3-1.7 1.3-1.7l-.8-3.8 1-2s-.7-4.7-.7-6 1.5-4.5 1.5-4.5l-1-2.5v-2l-1.8-.7v-3.8s.3-1.2 1.3-1.2 2.5 0 2.5-1v-2.8l-2.8-1.2.5-6.8v-.4l1-.3.3-.2h.2l1.6-.3h2.5l2.2.6z"/>
  <path class="city"  id="klaipeda_city" d="M109.5 251l2 1.5 3-2.5 2.3-2.2 1.5 2.2-1.5 3.5 4.2 1.5 2.8 3.8.2 4.5 2.3 2 .2 4.2 3.8 8.3 3.5 8.2-1.3 1-5.7.5-2.8.5 3 7.3-3 1.7-3.4-10.8-.2-1.3-.4-2.4-.7-3.8-.2-.6-.4-2.7-2-3-.2-.3-1.3-2-1.6-2.8-.7-.5-2.4-1.8-.2-2.7v-2.8l-.8-4.2-1.2-3-.2-1.5z"/>
  <path class="land"  id="palanga" d="M109 230.5h-2.7v-2.7l-1-2-1-10 .3-2.4 2-6.3 1.4-9.6 1.3-6v-.7l-.2-8-.7-7.6v-.8l3-1.6 3.3-2 1.3-.5v.5l-.5 6.8 2.8 1.2v2.8s-1.5 1-2.5 1-1.3 1.2-1.3 1.2v3.8l1.8.7v2l1 2.5s-1.5 3.3-1.5 4.5.7 6 .7 6l-1 2 .8 3.8s-.3 1-1.3 1.7-2.5 5.3-2.5 5.3l-.2 4.7-2 2.8v5l-1.3 2.2z"/>
  <path class="land"  id="neringa" d="M94.7 390.7l-1.4-.3-5.4-1h-.2l-.6-.2 2.2-3.4 6.3-12.2 1.3-3 6.5-14.5 3.4-12.4 1.2-5.3 3-12.8 2-19.3v-2l.5-11.5-1.7-21.2-.6-1.3-.5-1-1-2.2h1l1 .3h.3l.2.4 3 4.6v.3l1 2.5 1.8 4.4-.7 4 .2 2.5.6 3.4v5.2l-.4 4.6.2 4-1 3 .5 3.2.2 3.7-.4 1-.6 2.8-1.3 4-.2 2 .4 1.8-1 1.8v.8l-.3.7v.3l.4 1 1 2.8-.5 1-2.4 4v.4l.2 1.2-1.2 2 .2 1.8-.8 1.3.6.6-.8.8 2 1.4 1.6 3.6-.5 1-1.2.8v.2l-1.8 1.3 1.2 1.8-1.6 2h-.2l-1.7 1-.4.6.2.3 1 .8.5.5-4.3 5.3.4 1-.5 1.3 1 1v.8l-1 2.8v1l.7 1-2.4 1-2 2-1.6.8-1 .2-.5.3-.5.2-.3.2v.3l-.3 2h-.5l-1 .8.5 1v1l-1 .8h-1l-.7.2-1 .8-.4.8.8 1 .3.3.6 1z"/>
</g>
</svg>
